<?xml version="1.0" standalone="no"?>
<!DOCTYPE svg PUBLIC "-//W3C//DTD SVG 20010904//EN"
 "http://www.w3.org/TR/2001/REC-SVG-20010904/DTD/svg10.dtd">
<svg version="1.0" xmlns="http://www.w3.org/2000/svg"
 width="512.000000pt" height="512.000000pt" viewBox="0 0 512.000000 512.000000"
 preserveAspectRatio="xMidYMid meet">
<metadata>
Created by potrace 1.14, written by Peter Selinger 2001-2017
</metadata>
<g transform="translate(0.000000,512.000000) scale(0.100000,-0.100000)"
fill="#000000" stroke="none">
<path d="M787 5097 c-20 -12 -68 -51 -108 -87 -277 -248 -496 -528 -651 -833
-31 -60 -33 -100 -10 -158 32 -81 161 -104 230 -41 16 15 50 66 75 113 136
253 355 525 575 711 93 79 112 108 112 168 0 115 -125 186 -223 127z"/>
<path d="M2380 5113 c-437 -41 -825 -186 -1172 -438 -107 -78 -325 -295 -416
-413 -310 -405 -476 -897 -476 -1412 0 -188 10 -291 40 -435 8 -38 17 -81 20
-95 9 -46 65 -223 96 -299 161 -407 458 -765 849 -1026 59 -40 114 -75 121
-77 18 -6 22 4 -233 -525 -80 -166 -99 -214 -99 -250 0 -35 35 -97 67 -119 27
-18 70 -19 1358 -22 732 -1 1344 0 1361 3 60 10 114 83 114 153 0 13 -13 52
-29 86 -29 60 -88 184 -203 426 -116 242 -119 250 -98 250 14 0 224 143 305
208 106 86 291 277 372 384 186 246 310 505 383 798 16 63 32 138 36 165 3 28
8 59 10 70 24 123 23 479 -1 618 -2 12 -9 51 -15 87 -6 36 -14 79 -17 95 -3
17 -20 82 -38 146 -122 421 -361 804 -676 1078 -107 94 -122 105 -234 180
-288 192 -625 312 -995 356 -60 8 -374 13 -430 8z m430 -308 c19 -3 61 -10 92
-16 32 -5 70 -12 85 -15 67 -12 234 -62 298 -89 113 -48 182 -80 195 -90 8 -7
22 -15 32 -18 31 -11 183 -114 258 -174 318 -257 543 -608 664 -1033 21 -76
55 -270 61 -355 6 -81 6 -286 1 -330 -2 -16 -7 -59 -11 -95 -6 -53 -25 -155
-50 -260 -30 -130 -145 -387 -235 -525 -145 -221 -340 -414 -574 -567 -49 -32
-91 -57 -92 -55 -3 2 -170 352 -294 612 -26 55 -72 152 -103 215 -64 134 -139
293 -209 439 l-49 104 24 26 c89 96 127 260 92 394 -75 286 -369 426 -634 300
-68 -32 -160 -122 -195 -191 -83 -163 -70 -343 34 -479 l39 -53 -43 -92 c-24
-51 -72 -151 -106 -223 -35 -71 -80 -166 -100 -210 -21 -44 -70 -147 -110
-230 -67 -138 -100 -208 -242 -507 l-51 -107 -41 24 c-318 188 -590 488 -748
822 -41 86 -100 244 -113 302 -21 89 -46 217 -50 261 -3 30 -8 71 -11 90 -6
45 -6 284 0 330 3 19 8 62 11 95 3 33 18 112 32 175 152 689 627 1229 1265
1438 70 23 140 44 155 46 14 3 49 10 77 15 76 16 100 19 174 27 37 3 69 8 71
10 6 5 358 -4 401 -11z m-168 -1813 c45 -28 63 -64 63 -127 -1 -104 -96 -168
-196 -133 -122 42 -133 206 -18 266 52 27 100 25 151 -6z m-3 -634 c16 -35 59
-126 96 -203 91 -189 168 -350 225 -470 57 -120 138 -289 231 -483 38 -79 69
-145 69 -147 0 -10 -200 -74 -280 -89 -14 -3 -36 -7 -49 -10 -207 -45 -558
-41 -786 9 -112 25 -285 79 -285 90 0 3 91 194 195 411 142 295 184 382 275
574 53 113 116 244 139 293 l42 87 50 0 49 0 29 -62z m-553 -1687 c116 -23
153 -29 271 -41 90 -9 378 -6 468 5 156 19 385 74 513 123 l54 21 89 -187 c49
-103 96 -199 104 -213 8 -14 19 -38 24 -52 l11 -27 -1060 0 -1060 0 9 23 c5
12 48 102 95 200 47 98 86 179 86 182 0 2 9 19 20 37 l19 34 130 -43 c71 -23
173 -51 227 -62z"/>
<path d="M2455 4606 c-83 -20 -146 -56 -211 -121 -141 -141 -172 -340 -82
-522 52 -105 156 -191 273 -223 109 -30 272 -9 363 47 81 50 151 139 183 231
59 170 20 343 -105 467 -113 112 -273 158 -421 121z m172 -305 c46 -21 83 -78
83 -127 0 -52 -39 -115 -84 -135 -51 -23 -74 -23 -126 -3 -58 23 -95 88 -86
150 8 59 32 93 81 115 51 23 79 23 132 0z"/>
<path d="M1450 4005 c-82 -22 -144 -58 -205 -120 -94 -94 -135 -199 -131 -328
9 -252 189 -427 441 -430 119 -1 201 25 285 92 102 81 154 182 166 321 12 127
-34 248 -131 346 -114 114 -272 159 -425 119z m161 -297 c166 -58 101 -311
-73 -284 -49 8 -77 28 -107 77 -43 69 -13 166 62 200 49 22 72 23 118 7z"/>
<path d="M3455 4006 c-191 -47 -325 -204 -342 -401 -5 -57 9 -159 27 -194 4
-9 18 -37 30 -62 65 -138 235 -230 410 -223 235 9 405 175 427 415 17 194
-108 385 -295 451 -70 25 -190 31 -257 14z m182 -309 c38 -20 73 -82 73 -127
0 -72 -75 -150 -144 -150 -31 0 -91 23 -110 43 -96 95 -25 260 109 253 22 -1
55 -10 72 -19z"/>
<path d="M1350 2905 c-84 -23 -145 -59 -206 -121 -139 -139 -171 -337 -85
-517 166 -348 703 -312 825 56 79 237 -44 489 -279 572 -62 22 -195 27 -255
10z m167 -300 c159 -67 94 -305 -77 -280 -121 18 -171 158 -88 247 42 46 105
58 165 33z"/>
<path d="M3792 2855 c-59 -26 -86 -70 -97 -161 -4 -27 -8 -57 -11 -66 -3 -9
-6 -25 -8 -35 -18 -90 -89 -249 -160 -357 -68 -103 -77 -146 -47 -209 39 -80
140 -107 214 -57 40 28 135 171 187 284 87 187 145 428 121 506 -27 89 -115
131 -199 95z"/>
<path d="M4174 5093 c-43 -30 -64 -70 -64 -123 0 -60 19 -89 112 -168 225
-191 426 -440 579 -717 59 -107 90 -135 153 -142 83 -10 151 44 162 129 5 38
1 55 -31 118 -148 294 -394 604 -669 842 -107 93 -170 109 -242 61z"/>
</g>
</svg>
