<svg xmlns="http://www.w3.org/2000/svg" xmlns:xlink="http://www.w3.org/1999/xlink" viewBox="0 0 951.11 1256.96"><defs><style>.cls-1{fill:url(#linear-gradient);}.cls-2,.cls-7{fill:#fff;}.cls-2{opacity:0.05;}.cls-3,.cls-4{opacity:0.49;}.cls-3{fill:url(#radial-gradient);}.cls-4{fill:url(#radial-gradient-2);}.cls-5{fill:url(#radial-gradient-3);}.cls-6{fill:url(#radial-gradient-4);}.cls-7{opacity:0.1;}.cls-8{fill:#052b2f;}.cls-9{fill:url(#radial-gradient-5);}.cls-10{fill:url(#radial-gradient-6);}</style><linearGradient id="linear-gradient" x1="473.44" y1="-129.2" x2="473.44" y2="418.02" gradientUnits="userSpaceOnUse"><stop offset="0" stop-color="#485653"/><stop offset="0.15" stop-color="#3d4c4e"/><stop offset="0.7" stop-color="#1a2a3c"/><stop offset="1" stop-color="#0c1d35"/></linearGradient><radialGradient id="radial-gradient" cx="272.11" cy="1043.41" r="169.47" gradientTransform="translate(0 -345.85) scale(1 1.19)" gradientUnits="userSpaceOnUse"><stop offset="0" stop-color="#3e5b66"/><stop offset="1" stop-color="#1d3f4d"/></radialGradient><radialGradient id="radial-gradient-2" cx="633.46" cy="999.98" r="180.6" xlink:href="#radial-gradient"/><radialGradient id="radial-gradient-3" cx="510.22" cy="1058.24" r="133.82" xlink:href="#radial-gradient"/><radialGradient id="radial-gradient-4" cx="482.78" cy="1169.03" r="319.67" gradientTransform="translate(0 -266.82) scale(1 0.94)" gradientUnits="userSpaceOnUse"><stop offset="0" stop-color="#475047"/><stop offset="1" stop-color="#000923"/></radialGradient><radialGradient id="radial-gradient-5" cx="395.04" cy="1257.24" r="251.16" gradientTransform="matrix(0.98, 0.32, -0.13, 0.94, 172.77, -331.63)" gradientUnits="userSpaceOnUse"><stop offset="0" stop-color="#46534d"/><stop offset="1" stop-color="#000827"/></radialGradient><radialGradient id="radial-gradient-6" cx="557.16" cy="1291.54" fy="1255.4685761389997" r="291.5" gradientTransform="matrix(0.99, -0.26, 0.07, 0.66, -88, 321.93)" gradientUnits="userSpaceOnUse"><stop offset="0" stop-color="#475047"/><stop offset="1" stop-color="#001128"/></radialGradient></defs><g id="Layer_2" data-name="Layer 2"><g id="Artboard_1" data-name="Artboard 1"><rect class="cls-1" x="123.44" width="700" height="1256.96"/><path class="cls-2" d="M123.44,234.27c3.06.17,72.81,96.47,196.61,47.09C425.57,239.28,523.94,208.59,602.8,271c100.47,79.51,220.64,91,220.64,91V0h-700Z"/><path class="cls-2" d="M0,976.29s109.4,26.41,214.2,3,357.54-32.08,458.31,0,278.6,11.08,278.6,11.08v-64.8s-140.37,26.15-223,4.66-342.84-7.45-436.4,3S127.3,955.71,57.84,938.05Z"/><path class="cls-3" d="M381.11,988.36a48.41,48.41,0,0,0-7.84.66c-12.71-31.1-39.53-52.54-70.57-52.54-17.66,0-34,6.95-47.07,18.67-8.46-24.48-28.71-41.73-52.35-41.73-1.24,0-2.47.07-3.69.16-19.72-28.27-49.49-46.27-82.8-46.27-59.37,0-107.51,57.21-107.51,127.78s48.14,127.78,107.51,127.78H381.11c31.25,0,56.58-30.11,56.58-67.25S412.36,988.36,381.11,988.36Z"/><path class="cls-4" d="M858.72,889.08a67.56,67.56,0,0,0-11.43,1c-17.18-21.43-42.25-34.95-70.19-34.95-43.36,0-79.83,32.54-90.54,76.72-29.67,5.48-53,33.7-57,69.2A38.25,38.25,0,0,0,617.21,999c-24.77,0-44.84,23.87-44.84,53.31s20.07,53.3,44.84,53.3H939.06v-121C939.06,931.83,903.09,889.08,858.72,889.08Z"/><path class="cls-5" d="M606.47,1040.49c-.45,0-.9,0-1.35,0-3.16-14.5-11.69-26.43-22.91-32.62C569.8,978.52,542,958.05,509.7,958.05c-29.68,0-55.55,17.28-69.18,42.88-13,1-23.94,11.07-28.38,25a44.55,44.55,0,0,0-8.84-.9c-28,0-50.65,25.76-50.65,57.53a65.41,65.41,0,0,0,.44,7.46l-.44.29V1140H606.47c23.12,0,41.87-22.28,41.87-49.78S629.59,1040.49,606.47,1040.49Z"/><path class="cls-6" d="M772,971.44l-4.19-12.61,1.46.56-3.82-10.2-3.89,10.6,1.43-.21-4,12.76,2.36-1.2-2.7,9.21c-32.82,22.83-61.46,48.93-89.84,71l-4.1-12.31,1.47.56-3.83-10.2-3.89,10.6,1.44-.21-4,12.75,2.36-1.2-3,10.15-3.17,2.27-2.7-8.12,1.46.56-3.82-10.2-3.89,10.6,1.44-.21-4,12.76,2.36-1.21-.75,2.58A210.05,210.05,0,0,1,603.7,1091l-1.51-5,2,.9-4.25-12.76,1.47.57-3.83-10.21-3.89,10.6,1.44-.21-4,12.76,2.36-1.2-2.6,8.86a130.4,130.4,0,0,1-41.73,5.22C505.78,1099,444,1083.91,380,1057.8l-2.12-6.93,2,.9L375.64,1039l1.47.56-3.83-10.2-3.89,10.6,1.44-.21-3.89,12.52c-21.23-9.13-42.56-19.46-63.42-30.91l-1.13-3.71,2,.9-4.25-12.76,1.47.57-3.83-10.21-3.89,10.61,1.44-.22-2.7,8.71-4.36-2.5-1.43-4.69,2,.9-4.25-12.76,1.47.57-3.83-10.21-3.89,10.6,1.44-.21-2.83,9.11c-30.73-17.76-68.9-30.94-99.49-39.71l-1.85-6,2,.9-4.24-12.76,1.47.56L171,938.85l-3.89,10.6,1.44-.21-4,12.76,2.36-1.2-.72,2.45c-25-6.74-42.73-10-42.73-10V1257h700V944.22A324.4,324.4,0,0,0,772,971.44Zm-402.79,79.88-.51,1.74-1.57-.68Zm400.86-80.63,1.82.82-1.31.84ZM667,1050.87l1.53.7-1.06.82Z"/><path class="cls-7" d="M147.32,977.54l.07,0-.08-.13c-.44-6-2.09-7.06-2.09-7.06a31.58,31.58,0,0,0,1.93,6.77c-2.42-4.33-4.1-3.86-4.1-3.86a17.33,17.33,0,0,0,4.25,4.22l0,.06Z"/><path class="cls-7" d="M136.91,1025.09l.07.05c0-.05,0-.09-.07-.14-.44-6-2.1-7-2.1-7a32.24,32.24,0,0,0,1.93,6.76c-2.42-4.32-4.09-3.85-4.09-3.85a17.73,17.73,0,0,0,4.24,4.22l0,.06Z"/><path class="cls-7" d="M203.88,1021.5l.06,0s-.05-.09-.07-.13c-.44-6-2.09-7.06-2.09-7.06a31.38,31.38,0,0,0,1.92,6.76c-2.42-4.32-4.09-3.85-4.09-3.85a17.53,17.53,0,0,0,4.24,4.22l0,.06Z"/><path class="cls-7" d="M172.69,1058l.07,0-.07-.14c-.44-6-2.1-7.05-2.1-7.05a32.24,32.24,0,0,0,1.93,6.76c-2.42-4.32-4.09-3.85-4.09-3.85a17.42,17.42,0,0,0,4.24,4.21l0,.07Z"/><path class="cls-7" d="M244,1089.25l.06,0-.07-.13c-.44-6-2.09-7.06-2.09-7.06a31.58,31.58,0,0,0,1.93,6.77c-2.42-4.32-4.1-3.85-4.1-3.85a17.23,17.23,0,0,0,4.25,4.21l0,.06Z"/><path class="cls-7" d="M314,1117.44l.06,0s-.05-.08-.07-.13c-.44-6-2.09-7.06-2.09-7.06a32.29,32.29,0,0,0,1.92,6.77c-2.41-4.33-4.09-3.85-4.09-3.85a17.62,17.62,0,0,0,4.24,4.21l0,.06Z"/><path class="cls-7" d="M265,1069.52l.07,0s-.05-.08-.07-.13c-.44-6-2.1-7.06-2.1-7.06a32.18,32.18,0,0,0,1.93,6.77c-2.42-4.32-4.09-3.85-4.09-3.85a17.42,17.42,0,0,0,4.24,4.21l0,.06Z"/><path class="cls-7" d="M325.21,1074.13l.07,0s0-.09-.07-.13c-.44-6-2.1-7.06-2.1-7.06a32.05,32.05,0,0,0,1.93,6.76c-2.42-4.32-4.09-3.85-4.09-3.85a17.73,17.73,0,0,0,4.24,4.22l0,.06Z"/><path class="cls-7" d="M369.24,1074.13l.07,0s-.05-.09-.07-.13c-.44-6-2.09-7.06-2.09-7.06a31.56,31.56,0,0,0,1.92,6.76c-2.42-4.32-4.09-3.85-4.09-3.85a17.73,17.73,0,0,0,4.24,4.22l0,.06Z"/><path class="cls-7" d="M403.44,1134.1l.07,0-.08-.13c-.44-6-2.09-7.06-2.09-7.06a31.58,31.58,0,0,0,1.93,6.77c-2.42-4.32-4.1-3.85-4.1-3.85a17.23,17.23,0,0,0,4.25,4.21l0,.06Z"/><path class="cls-7" d="M473.51,1121.12l-.07.05.08-.13c.43-6,2.09-7.06,2.09-7.06a31.87,31.87,0,0,1-1.93,6.76c2.42-4.32,4.1-3.85,4.1-3.85a17.53,17.53,0,0,1-4.25,4.22l0,.06Z"/><path class="cls-7" d="M496.48,1157.48l-.07,0,.08-.13c.44-6,2.09-7.06,2.09-7.06a32.18,32.18,0,0,1-1.93,6.77c2.42-4.32,4.1-3.85,4.1-3.85a17.23,17.23,0,0,1-4.25,4.21l0,.06Z"/><path class="cls-7" d="M549.32,1130.5l-.07,0,.08-.13c.44-6,2.09-7.06,2.09-7.06a31.46,31.46,0,0,1-1.93,6.76c2.42-4.32,4.1-3.85,4.1-3.85a17.53,17.53,0,0,1-4.25,4.22l0,.06Z"/><path class="cls-7" d="M808.74,997.53l-.07,0,.08-.13c.43-6,2.09-7.06,2.09-7.06a32.18,32.18,0,0,1-1.93,6.77c2.42-4.32,4.09-3.85,4.09-3.85a17.07,17.07,0,0,1-4.24,4.21l0,.06Z"/><path class="cls-7" d="M819.18,962.27l-.07,0s0-.08.07-.13c.44-6,2.1-7,2.1-7a32.24,32.24,0,0,1-1.93,6.76c2.42-4.32,4.09-3.85,4.09-3.85a17.42,17.42,0,0,1-4.24,4.21l0,.06Z"/><path class="cls-7" d="M743.21,1019.28l-.06.05a.54.54,0,0,1,.07-.13c.44-6,2.09-7.06,2.09-7.06a31.28,31.28,0,0,1-1.93,6.76c2.42-4.32,4.1-3.85,4.1-3.85a17.33,17.33,0,0,1-4.25,4.22l0,.06Z"/><path class="cls-7" d="M777.66,1052.34l-.07.05c0-.05,0-.09.07-.14.44-6,2.09-7,2.09-7a31.74,31.74,0,0,1-1.92,6.76c2.42-4.32,4.09-3.85,4.09-3.85a17.42,17.42,0,0,1-4.24,4.21l0,.07Z"/><path class="cls-7" d="M672.69,1105.05l-.07,0,.08-.14c.44-6,2.09-7,2.09-7a32.24,32.24,0,0,1-1.93,6.76c2.42-4.32,4.1-3.85,4.1-3.85a17.53,17.53,0,0,1-4.25,4.22l0,.06Z"/><path class="cls-7" d="M677,1063.88l-.06,0s0-.08.07-.13c.44-6,2.09-7.06,2.09-7.06a31.58,31.58,0,0,1-1.93,6.77c2.42-4.32,4.1-3.85,4.1-3.85a17.23,17.23,0,0,1-4.25,4.21l0,.06Z"/><path class="cls-7" d="M711.64,1071.07l-.06,0s0-.08.07-.13c.44-6,2.09-7.06,2.09-7.06a32.29,32.29,0,0,1-1.92,6.77c2.41-4.32,4.09-3.85,4.09-3.85a17.42,17.42,0,0,1-4.24,4.21l0,.06Z"/><path class="cls-7" d="M609.92,1121.12l-.06.05c0-.05,0-.09.07-.13.44-6,2.09-7.06,2.09-7.06a31.38,31.38,0,0,1-1.92,6.76c2.42-4.32,4.09-3.85,4.09-3.85a17.73,17.73,0,0,1-4.24,4.22l0,.06Z"/><path class="cls-7" d="M628.27,1097.86l-.07.05c0-.05,0-.09.07-.14.44-6,2.09-7,2.09-7a31.74,31.74,0,0,1-1.92,6.76c2.42-4.32,4.09-3.85,4.09-3.85a17.73,17.73,0,0,1-4.24,4.22l0,.06Z"/><path class="cls-7" d="M256.61,1017.9l.07.05c0-.05-.05-.09-.07-.14-.44-6-2.1-7-2.1-7a32.24,32.24,0,0,0,1.93,6.76c-2.42-4.32-4.09-3.85-4.09-3.85a17.42,17.42,0,0,0,4.24,4.21l0,.07Z"/><polygon class="cls-8" points="198.74 1034.47 190.8 1055.24 193.73 1054.82 185.64 1079.81 190.46 1077.46 183.71 1099.51 215.5 1099.51 208.18 1076.58 212.23 1078.34 203.56 1053.35 206.55 1054.46 198.74 1034.47"/><polygon class="cls-8" points="146.52 1025.5 138.57 1046.27 141.51 1045.85 133.42 1070.84 138.23 1068.48 131.49 1090.53 163.28 1090.53 155.96 1067.6 160 1069.37 151.34 1044.38 154.33 1045.48 146.52 1025.5"/><polygon class="cls-8" points="710.71 1056.78 702.76 1077.55 705.7 1077.13 697.61 1102.12 702.42 1099.76 695.68 1121.81 727.47 1121.81 720.15 1098.88 724.2 1100.64 715.53 1075.66 718.52 1076.76 710.71 1056.78"/><polygon class="cls-8" points="795.04 1018.97 785.81 1043.09 789.22 1042.61 779.83 1071.63 785.42 1068.89 777.59 1094.5 814.51 1094.5 806.01 1067.87 810.71 1069.92 800.64 1040.9 804.11 1042.18 795.04 1018.97"/><polygon class="cls-8" points="736.31 1033.35 727.08 1057.47 730.49 1056.99 721.09 1086.01 726.68 1083.27 718.85 1108.88 755.77 1108.88 747.27 1082.25 751.97 1084.3 741.9 1055.28 745.38 1056.56 736.31 1033.35"/><polygon class="cls-8" points="474.94 1128.83 468.81 1144.86 471.07 1144.54 464.83 1163.83 468.54 1162.01 463.34 1179.03 487.88 1179.03 482.23 1161.33 485.35 1162.69 478.66 1143.4 480.97 1144.26 474.94 1128.83"/><polygon class="cls-8" points="456.74 1138.67 450.61 1154.7 452.87 1154.38 446.63 1173.67 450.34 1171.86 445.14 1188.87 469.68 1188.87 464.03 1171.17 467.15 1172.54 460.46 1153.25 462.77 1154.1 456.74 1138.67"/><polygon class="cls-8" points="582.61 1121.17 576.47 1137.2 578.74 1136.88 572.49 1156.17 576.21 1154.35 571.01 1171.37 595.55 1171.37 589.89 1153.67 593.02 1155.03 586.33 1135.74 588.64 1136.6 582.61 1121.17"/><path class="cls-9" d="M123.44,1066s78.78,12.56,174.11,54.72c107.09,47.36,220.9,55.63,316.71,37.54,132.3-25,209.18,24.22,209.18,24.22V1257h-700Z"/><path class="cls-10" d="M823.44,1070.58s-78.14,7.28-245.57,70.7c-92.82,35.16-177.8,94.65-266,115.68H823.44Z"/><path class="cls-7" d="M205,1155.72a.46.46,0,0,0,.11.07l-.12-.2c-.66-9.14-3.17-10.72-3.17-10.72a48.84,48.84,0,0,0,2.92,10.28c-3.67-6.57-6.21-5.85-6.21-5.85a26.31,26.31,0,0,0,6.44,6.4l0,.09A.2.2,0,0,0,205,1155.72Z"/><path class="cls-7" d="M304,1225.18l.1.07c0-.08-.08-.13-.11-.2-.67-9.14-3.18-10.72-3.18-10.72a48,48,0,0,0,2.93,10.27c-3.68-6.56-6.22-5.85-6.22-5.85a26.29,26.29,0,0,0,6.44,6.4l0,.1Z"/><path class="cls-7" d="M347.24,1197.32l.1.07c0-.08-.08-.14-.12-.21-.66-9.13-3.17-10.71-3.17-10.71a48,48,0,0,0,2.93,10.27c-3.68-6.57-6.22-5.85-6.22-5.85a26.49,26.49,0,0,0,6.44,6.4.55.55,0,0,1,0,.1Z"/><path class="cls-7" d="M406.69,1208.8l.11.07c0-.08-.08-.13-.12-.2-.66-9.14-3.17-10.72-3.17-10.72a48.71,48.71,0,0,0,2.92,10.27c-3.67-6.56-6.22-5.85-6.22-5.85a26.47,26.47,0,0,0,6.45,6.4l0,.1A.15.15,0,0,0,406.69,1208.8Z"/><path class="cls-7" d="M146.24,1208.8l.1.07-.11-.2c-.67-9.14-3.18-10.72-3.18-10.72a48.6,48.6,0,0,0,2.93,10.27c-3.67-6.56-6.22-5.85-6.22-5.85a26.47,26.47,0,0,0,6.45,6.4l0,.1S146.24,1208.82,146.24,1208.8Z"/><path class="cls-7" d="M153.86,1103.3l.11.07c0-.08-.08-.13-.12-.2-.66-9.14-3.17-10.72-3.17-10.72a48.71,48.71,0,0,0,2.92,10.27c-3.67-6.57-6.21-5.85-6.21-5.85a26.11,26.11,0,0,0,6.44,6.4l0,.1A.15.15,0,0,0,153.86,1103.3Z"/><path class="cls-7" d="M281,1144.06l.1.07-.11-.2c-.67-9.14-3.18-10.72-3.18-10.72a48.73,48.73,0,0,0,2.93,10.28c-3.68-6.57-6.22-5.85-6.22-5.85a26.47,26.47,0,0,0,6.45,6.4l0,.09A.15.15,0,0,1,281,1144.06Z"/><path class="cls-7" d="M205,1230.64l.11.07c0-.08-.08-.13-.12-.2-.66-9.14-3.17-10.72-3.17-10.72a48.71,48.71,0,0,0,2.92,10.27c-3.67-6.56-6.21-5.85-6.21-5.85a26.11,26.11,0,0,0,6.44,6.4l0,.1A.15.15,0,0,0,205,1230.64Z"/><path class="cls-7" d="M641.09,1202.78l-.1.07.12-.21c.66-9.13,3.17-10.71,3.17-10.71a48.71,48.71,0,0,1-2.92,10.27c3.67-6.57,6.21-5.85,6.21-5.85a26.49,26.49,0,0,1-6.44,6.4l0,.1Z"/><path class="cls-7" d="M543.21,1176.76l-.11.07.12-.2c.66-9.14,3.17-10.72,3.17-10.72a48.52,48.52,0,0,1-2.92,10.27c3.67-6.56,6.21-5.85,6.21-5.85a26.41,26.41,0,0,1-6.44,6.41l0,.09A.2.2,0,0,1,543.21,1176.76Z"/><path class="cls-7" d="M569.49,1219.18l-.1.07.11-.21c.67-9.14,3.18-10.71,3.18-10.71a48.6,48.6,0,0,1-2.93,10.27c3.67-6.57,6.22-5.85,6.22-5.85a26.47,26.47,0,0,1-6.45,6.4l0,.1S569.49,1219.2,569.49,1219.18Z"/><path class="cls-7" d="M484.69,1242.35l-.1.07.11-.2c.67-9.14,3.18-10.72,3.18-10.72a48.73,48.73,0,0,1-2.93,10.28c3.68-6.57,6.22-5.85,6.22-5.85a26.47,26.47,0,0,1-6.45,6.4l0,.09A.15.15,0,0,0,484.69,1242.35Z"/><path class="cls-7" d="M744.29,1213.72l-.1.07.11-.21c.67-9.14,3.18-10.71,3.18-10.71a48.6,48.6,0,0,1-2.93,10.27c3.67-6.57,6.22-5.85,6.22-5.85a26.47,26.47,0,0,1-6.45,6.4l0,.1S744.29,1213.74,744.29,1213.72Z"/><path class="cls-7" d="M811.32,1230.1l-.1.07.11-.21c.67-9.14,3.18-10.71,3.18-10.71a48.6,48.6,0,0,1-2.93,10.27c3.68-6.57,6.22-5.85,6.22-5.85a26.47,26.47,0,0,1-6.45,6.4l0,.1A.2.2,0,0,0,811.32,1230.1Z"/><path class="cls-7" d="M778.73,1119.28l-.1.07a2,2,0,0,0,.11-.2c.67-9.14,3.18-10.72,3.18-10.72A48,48,0,0,1,779,1118.7c3.68-6.56,6.22-5.85,6.22-5.85a26.47,26.47,0,0,1-6.44,6.4.55.55,0,0,0,0,.1Z"/><path class="cls-7" d="M669.43,1139.53a.33.33,0,0,1-.1.07l.12-.2c.66-9.14,3.17-10.72,3.17-10.72A48.84,48.84,0,0,1,669.7,1139c3.67-6.57,6.21-5.85,6.21-5.85a26.49,26.49,0,0,1-6.44,6.4l0,.09Z"/></g></g></svg>