<svg width="1920" height="1080" viewBox="0 0 1920 1080" fill="none" xmlns="http://www.w3.org/2000/svg">
<path d="M1919.66 -53.759H-0.341309V1080.9H1919.66V-53.759Z" fill="url(#paint0_linear_488_730)"/>
<path opacity="0.05" d="M-37.8546 172.231C-31.0197 172.231 395.768 243.465 631.279 195.499C866.79 147.532 1128.18 141.651 1262.01 190.998C1395.85 240.346 1943.41 227.869 1943.41 227.869V0H-37.957L-37.8546 172.231Z" fill="white"/>
<path opacity="0.05" d="M-137 737.489C-137 737.489 257.558 821.865 478.069 756.563C668.116 700.312 1136.91 709.235 1322.61 756.563C1508.3 803.891 2031.47 757.1 2031.47 757.1V661.498C2031.47 661.498 1577.29 715.883 1425.03 684.178C1272.77 652.473 793.295 673.209 620.886 688.601C448.476 703.994 97.5642 707.139 -30.4311 681.084L-137 737.489Z" fill="white"/>
<path opacity="0.5" d="M706.873 758.68C701.64 758.682 696.413 759.05 691.232 759.779C681.165 739.042 666.629 720.786 648.665 706.321C630.702 691.857 609.756 681.542 587.331 676.116C564.905 670.69 541.556 670.289 518.956 674.939C496.357 679.59 475.068 689.179 456.616 703.017C448.121 682.333 433.66 664.641 415.071 652.189C396.482 639.736 374.606 633.087 352.223 633.086C349.664 633.086 347.308 633.086 344.851 633.342C321.817 605.572 292.135 584.062 258.557 570.807C224.98 557.552 188.595 552.982 152.777 557.52C116.959 562.058 82.869 575.557 53.6683 596.766C24.4676 617.974 1.10234 646.205 -14.2602 678.84C-29.6227 711.475 -36.4849 747.456 -34.2103 783.446C-31.9357 819.437 -20.5979 854.271 -1.24856 884.717C18.1007 915.163 44.8348 940.235 76.4739 957.607C108.113 974.98 143.632 984.09 179.737 984.094H706.873C736.8 984.094 765.501 972.219 786.663 951.083C807.825 929.946 819.713 901.278 819.713 871.387C819.713 841.495 807.825 812.827 786.663 791.691C765.501 770.554 736.8 758.68 706.873 758.68Z" fill="url(#paint1_radial_488_730)"/>
<path opacity="0.5" d="M1794.35 597.213C1785.73 597.215 1777.12 597.831 1768.59 599.054C1729.91 558.502 1673.44 532.908 1610.52 532.908C1512.83 532.908 1430.71 594.503 1406.6 678.138C1373.92 683.245 1343.77 698.75 1320.63 722.345C1297.48 745.941 1282.58 776.368 1278.14 809.101C1264.25 805.148 1249.68 804.217 1235.39 806.37C1221.11 808.524 1207.46 813.711 1195.36 821.583C1183.26 829.455 1172.99 839.828 1165.24 852.002C1157.49 864.176 1152.45 877.868 1150.45 892.155C1148.45 906.442 1149.55 920.99 1153.66 934.818C1157.77 948.647 1164.8 961.434 1174.28 972.317C1183.76 983.2 1195.47 991.925 1208.61 997.905C1221.75 1003.88 1236.03 1006.98 1250.47 1006.98H1975.28V777.933C1975.28 730.003 1956.22 684.036 1922.29 650.145C1888.35 616.253 1842.33 597.213 1794.35 597.213Z" fill="url(#paint2_radial_488_730)"/>
<path d="M1228.79 816.491C1227.84 816.491 1226.89 816.491 1225.97 816.491C1222.67 803.911 1216.64 792.214 1208.29 782.234C1199.95 772.254 1189.5 764.238 1177.69 758.757C1151.55 706.878 1093.03 670.749 1025.02 670.749C962.505 670.749 908.03 701.431 879.334 746.611C866.184 747.484 853.561 752.109 842.965 759.937C832.369 767.764 824.246 778.465 819.56 790.769C813.412 789.72 807.187 789.19 800.95 789.183C742.072 789.183 694.278 834.772 694.278 890.998C694.287 895.412 694.595 899.819 695.2 904.191L694.278 904.703V992.787H1228.79C1252.18 992.787 1274.61 983.507 1291.15 966.988C1307.68 950.469 1316.98 928.064 1316.98 904.703C1316.98 881.341 1307.68 858.937 1291.15 842.418C1274.61 825.899 1252.18 816.618 1228.79 816.618V816.491Z" fill="url(#paint3_radial_488_730)"/>
<path d="M1894.57 701.431L1892.54 697.315L1895.72 698.21L1888.96 685.425L1891.29 685.988L1885.2 675.76L1879 686.346L1881.28 686.141L1875.34 698.184C1845.2 693.83 1814.76 691.898 1784.31 692.406L1777.94 680.363L1780.27 680.925L1774.17 670.698L1767.98 681.283L1770.28 681.079L1764.42 692.891C1700.7 695.448 1616.25 707.21 1505.61 738.685L1497.93 723.599L1500.62 724.264L1493.66 712.017L1486.54 724.801L1489.1 724.545L1481.86 739.887L1486.16 738.455L1481.22 749.475C1421.27 776.655 1368.89 807.9 1317.03 834.389L1309.53 819.661L1312.21 820.326L1305.23 808.104L1298.11 820.888L1300.67 820.633L1293.42 835.974L1297.75 834.542L1292.3 846.687L1286.51 849.398L1281.57 839.681L1284.26 840.346L1277.27 828.15L1270.15 840.934L1272.71 840.679L1265.47 856.02L1269.8 854.588L1268.41 857.682C1245.54 867.681 1221.91 875.887 1197.76 882.228L1195 876.296L1198.6 877.37L1190.93 862.029L1193.49 862.693L1186.5 850.497L1179.38 863.281L1181.94 863.026L1174.67 878.367L1179 876.935L1174.23 887.546C1149.15 892.136 1123.64 894.03 1098.15 893.197C1018.8 891.228 905.752 873.202 788.866 842.059L784.975 833.775L788.61 834.849L780.931 819.508L783.491 820.172L776.502 807.951L769.386 820.735L771.946 820.479L764.829 835.463C725.995 824.545 687.008 812.17 648.865 798.465L646.792 794.016L650.401 795.115L642.721 779.774L645.281 780.464L638.267 768.242L631.151 781.027L633.711 780.771L628.77 791.203L620.809 788.212L618.249 782.586L621.858 783.686L614.179 768.345L616.738 769.035L609.724 756.813L602.608 769.598L605.168 769.342L600.048 780.26C543.858 758.986 474.049 743.211 418.115 732.727L414.762 725.517L418.371 726.591L410.692 711.25L413.251 711.914L406.237 699.693L399.121 712.477L401.681 712.221L394.436 727.563L398.762 726.131L397.431 729.071C329.722 721.4 270.46 717.079 219.774 714.625L216.958 708.846L220.107 709.767L213.348 696.982L215.678 697.545L209.585 687.317L203.416 697.928L205.694 697.698L199.397 710.483L203.467 709.102L201.368 713.602C157.85 711.838 121.038 711.557 91.4202 712.017L89.7818 708.642L92.9305 709.562L86.1723 696.778L88.5275 697.34L82.4349 687.113L76.2399 697.724L78.5182 697.494L72.2209 710.278L75.9839 709.076L74.448 712.324C68.765 712.477 63.3977 712.647 58.3462 712.835L54.7111 705.369L57.8598 706.264L51.1016 693.479L53.4311 694.042L47.3386 683.814L41.1436 694.4L43.4475 694.195L37.1245 706.98L40.8876 705.804L37.1501 713.807C12.2935 715.238 -0.30127 716.773 -0.30127 716.773V1080.46H1919.63V706.085C1913.02 704.909 1904.73 703.17 1894.57 701.431ZM768.208 836.485L765.315 835.693L769.206 834.389L768.208 836.485ZM1314.47 835.565L1313.62 833.749L1316.41 834.568L1314.47 835.565ZM1503.03 739.784L1502.08 737.79L1505.41 738.762L1503.03 739.784ZM1782.34 692.406H1781.65V692.175L1782.34 692.406ZM1767.72 692.636V692.789H1767.26L1767.72 692.636ZM1878.75 697.749L1878.29 698.695L1876.6 698.414L1878.75 697.749Z" fill="url(#paint4_radial_488_730)"/>
<path opacity="0.1" d="M363.333 745.947H363.461L363.333 745.768C362.514 738.583 359.494 737.33 359.494 737.33C360.251 740.195 361.443 742.929 363.026 745.435C358.598 740.321 355.551 740.807 355.551 740.807C357.823 742.909 360.415 744.635 363.231 745.921L363.333 745.947Z" fill="white"/>
<path opacity="0.1" d="M344.262 802.888V802.735C343.443 795.524 340.422 794.271 340.422 794.271C341.175 797.139 342.366 799.873 343.955 802.377C339.526 797.263 336.455 797.774 336.455 797.774C338.735 799.865 341.325 801.59 344.134 802.888H344.262Z" fill="white"/>
<path opacity="0.1" d="M466.753 798.593H466.881C466.881 798.593 466.881 798.593 466.753 798.414C465.934 791.229 462.913 789.976 462.913 789.976C463.671 792.841 464.862 795.575 466.446 798.081C462.017 792.967 458.945 793.453 458.945 793.453C461.221 795.549 463.813 797.275 466.625 798.567L466.753 798.593Z" fill="white"/>
<path opacity="0.1" d="M409.745 842.238L409.591 842.085C408.798 834.875 405.777 833.647 405.777 833.647C406.534 836.505 407.725 839.23 409.31 841.727C404.881 836.613 401.809 837.125 401.809 837.125C404.093 839.21 406.683 840.934 409.489 842.238H409.745Z" fill="white"/>
<path opacity="0.1" d="M540.018 879.697V879.518C539.225 872.333 536.179 871.08 536.179 871.08C536.936 873.946 538.128 876.679 539.711 879.185C535.283 874.072 532.236 874.557 532.236 874.557C534.512 876.653 537.104 878.379 539.916 879.671L540.018 879.697Z" fill="white"/>
<path opacity="0.1" d="M668.065 913.422H668.193L668.065 913.268C667.272 906.058 664.251 904.831 664.251 904.831C665.001 907.687 666.184 910.411 667.758 912.91C663.329 907.797 660.283 908.308 660.283 908.308C662.566 910.395 665.156 912.12 667.963 913.422H668.065Z" fill="white"/>
<path opacity="0.1" d="M578.546 856.071H578.674L578.546 855.918C577.727 848.707 574.706 847.454 574.706 847.454C575.458 850.322 576.65 853.056 578.239 855.56C573.81 850.446 570.738 850.957 570.738 850.957C573.018 853.048 575.609 854.773 578.418 856.071H578.546Z" fill="white"/>
<path opacity="0.1" d="M688.621 861.594H688.749L688.621 861.441C687.802 854.23 684.781 852.977 684.781 852.977C685.534 855.845 686.725 858.579 688.314 861.083C683.885 855.969 680.813 856.48 680.813 856.48C683.093 858.571 685.684 860.296 688.493 861.594H688.621Z" fill="white"/>
<path opacity="0.1" d="M769.208 861.594V861.441C768.389 854.23 765.368 852.977 765.368 852.977C766.12 855.845 767.312 858.579 768.901 861.083C764.472 855.969 761.426 856.48 761.426 856.48C763.701 858.577 766.293 860.302 769.105 861.594H769.208Z" fill="white"/>
<path opacity="0.1" d="M831.668 933.365L831.54 933.212C830.746 926.001 827.726 924.774 827.726 924.774C828.476 927.63 829.659 930.355 831.233 932.854C826.83 927.74 823.758 928.251 823.758 928.251C826.041 930.339 828.631 932.063 831.438 933.365H831.668Z" fill="white"/>
<path opacity="0.1" d="M959.791 917.845H959.663L959.791 917.692C960.61 910.481 963.631 909.228 963.631 909.228C962.879 912.096 961.687 914.83 960.098 917.334C964.527 912.22 967.573 912.731 967.573 912.731C965.298 914.828 962.706 916.553 959.893 917.845H959.791Z" fill="white"/>
<path opacity="0.1" d="M1001.77 961.363L1001.9 961.21C1002.69 953.999 1005.72 952.746 1005.72 952.746C1004.97 955.612 1003.79 958.346 1002.21 960.852C1006.64 955.738 1009.68 956.249 1009.68 956.249C1007.4 958.34 1004.81 960.065 1002 961.363H1001.77Z" fill="white"/>
<path opacity="0.1" d="M1098.41 928.993H1098.28L1098.41 928.84C1099.23 921.629 1102.25 920.402 1102.25 920.402C1101.49 923.26 1100.3 925.985 1098.72 928.482C1103.15 923.368 1106.22 923.879 1106.22 923.879C1103.94 925.97 1101.35 927.695 1098.54 928.993H1098.41Z" fill="white"/>
<path opacity="0.1" d="M1572.76 769.879V769.7C1573.58 762.515 1576.6 761.262 1576.6 761.262C1575.83 764.157 1574.63 766.917 1573.02 769.444C1577.45 764.331 1580.49 764.816 1580.49 764.816C1578.22 766.918 1575.63 768.644 1572.81 769.93L1572.76 769.879Z" fill="white"/>
<path opacity="0.1" d="M1591.83 727.691H1591.7L1591.86 727.537C1592.65 720.327 1595.67 719.074 1595.67 719.074C1594.91 721.939 1593.72 724.673 1592.14 727.179C1596.57 722.065 1599.64 722.577 1599.64 722.577C1597.36 724.667 1594.77 726.392 1591.96 727.691H1591.83Z" fill="white"/>
<path opacity="0.1" d="M1452.93 796.036H1452.8L1452.96 795.882C1453.75 788.672 1456.77 787.445 1456.77 787.445C1456.01 790.302 1454.82 793.027 1453.24 795.524C1457.67 790.41 1460.74 790.922 1460.74 790.922C1458.45 793.007 1455.86 794.732 1453.06 796.036H1452.93Z" fill="white"/>
<path opacity="0.1" d="M1515.91 835.514C1515.91 835.514 1515.91 835.514 1516.03 835.335C1516.83 828.15 1519.85 826.897 1519.85 826.897C1519.1 829.761 1517.91 832.494 1516.34 835.002C1520.74 829.889 1523.82 830.375 1523.82 830.375C1521.54 832.47 1518.95 834.196 1516.14 835.488L1515.91 835.514Z" fill="white"/>
<path opacity="0.1" d="M1323.99 898.592H1323.86L1323.99 898.413C1324.81 891.228 1327.83 889.975 1327.83 889.975C1327.07 892.839 1325.88 895.572 1324.3 898.081C1328.73 892.967 1331.8 893.453 1331.8 893.453C1329.51 895.54 1326.92 897.264 1324.12 898.566L1323.99 898.592Z" fill="white"/>
<path opacity="0.1" d="M1331.9 849.321L1332.03 849.168C1332.82 841.957 1335.84 840.704 1335.84 840.704C1335.09 843.57 1333.91 846.304 1332.33 848.81C1336.74 843.696 1339.81 844.207 1339.81 844.207C1337.53 846.298 1334.94 848.023 1332.13 849.321H1331.9Z" fill="white"/>
<path opacity="0.1" d="M1395.21 857.912C1395.21 857.912 1395.21 857.912 1395.21 857.733C1396 850.548 1399.02 849.295 1399.02 849.295C1398.26 852.155 1397.08 854.887 1395.51 857.401C1399.92 852.287 1402.99 852.773 1402.99 852.773C1400.71 854.869 1398.12 856.594 1395.31 857.887L1395.21 857.912Z" fill="white"/>
<path opacity="0.1" d="M1209.23 917.845V917.692C1210.02 910.481 1213.07 909.228 1213.07 909.228C1212.32 912.096 1211.12 914.83 1209.54 917.334C1213.96 912.22 1217.01 912.731 1217.01 912.731C1214.73 914.828 1212.14 916.553 1209.33 917.845H1209.23Z" fill="white"/>
<path opacity="0.1" d="M1242.79 890.001V889.847C1243.61 882.637 1246.63 881.384 1246.63 881.384C1245.87 884.25 1244.68 886.983 1243.1 889.489C1247.52 884.376 1250.57 884.887 1250.57 884.887C1248.3 886.983 1245.7 888.709 1242.89 890.001H1242.79Z" fill="white"/>
<path opacity="0.1" d="M563.185 794.271H563.313L563.185 794.118C562.365 786.908 559.345 785.68 559.345 785.68C560.102 788.538 561.293 791.263 562.877 793.76C558.449 788.646 555.377 789.158 555.377 789.158C557.66 791.244 560.25 792.969 563.057 794.271H563.185Z" fill="white"/>
<path d="M457.384 814.113L442.844 838.966L448.22 838.48L433.423 868.395L442.229 865.557L429.891 891.97H488.026L474.638 864.509L482.036 866.631L466.19 836.716L471.643 838.045L457.384 814.113Z" fill="#052B2F"/>
<path d="M23.4292 737.407L8.91455 762.259L14.2903 761.774L-0.505902 791.689L8.30017 788.851L-4.03857 815.263H54.0969L40.7086 787.803L48.1067 789.925L32.2609 760.009L37.7135 761.339L23.4292 737.407Z" fill="#052B2F"/>
<path d="M361.875 803.374L347.36 828.227L352.71 827.741L337.914 857.656L346.72 854.818L334.407 881.231H392.517L379.154 853.77L386.526 855.892L370.681 825.977L376.159 827.306L361.875 803.374Z" fill="#052B2F"/>
<path d="M52.5098 751.111L37.9695 775.964L43.3453 775.453L28.5491 805.368L37.3551 802.556L25.042 828.943H83.1519L69.7635 801.507L77.1617 803.604L61.3159 773.714L66.7941 775.018L52.5098 751.111Z" fill="#052B2F"/>
<path d="M221.464 776.322L206.923 801.2L212.299 800.689L197.503 830.605L206.309 827.792L193.97 854.179H252.106L238.717 826.718L246.116 828.84L230.27 798.925L235.748 800.254L221.464 776.322Z" fill="#052B2F"/>
<path d="M1393.52 840.807L1378.98 865.685L1384.35 865.174L1369.56 895.089L1378.36 892.276L1366.02 918.663H1424.16L1410.77 891.228L1418.17 893.325L1402.32 863.409L1407.8 864.739L1393.52 840.807Z" fill="#052B2F"/>
<path d="M1547.7 795.55L1530.83 824.443L1537.08 823.855L1519.9 858.577L1530.11 855.33L1515.8 885.961H1583.31L1567.77 854.102L1576.34 856.557L1557.94 821.809L1564.29 823.343L1547.7 795.55Z" fill="#052B2F"/>
<path d="M1799.88 781.743L1783.01 810.61L1789.25 810.047L1772.05 844.77L1782.29 841.497L1767.95 872.154H1835.48L1819.92 840.27L1828.52 842.724L1810.12 808.002L1816.46 809.536L1799.88 781.743Z" fill="#052B2F"/>
<path d="M1884.02 781.743L1867.15 810.61L1873.4 810.047L1856.22 844.77L1866.43 841.497L1852.12 872.154H1919.63L1904.09 840.27L1912.66 842.724L1894.26 808.002L1900.61 809.536L1884.02 781.743Z" fill="#052B2F"/>
<path d="M1440.31 812.783L1423.44 841.65L1429.66 841.062L1412.49 875.81L1422.73 872.537L1408.39 903.169H1475.89L1460.36 871.31L1468.96 873.765L1450.53 839.017L1456.9 840.551L1440.31 812.783Z" fill="#052B2F"/>
<path d="M962.402 927.075L951.19 946.252L955.337 945.868L943.894 968.957L950.704 966.784L941.181 987.162H986.056L975.714 965.965L981.422 967.602L969.186 944.513L973.41 945.536L962.402 927.075Z" fill="#052B2F"/>
<path d="M929.124 938.837L917.912 958.039L922.059 957.656L910.616 980.744L917.425 978.571L907.902 998.949H952.777L942.436 977.753L948.144 979.389L935.908 956.301L940.132 957.323L929.124 938.837Z" fill="#052B2F"/>
<path d="M1159.26 917.896L1148.05 937.099L1152.2 936.689L1140.78 959.803L1147.59 957.605L1138.06 977.983H1182.94L1172.6 956.812L1178.31 958.423L1166.07 935.334L1170.29 936.357L1159.26 917.896Z" fill="#052B2F"/>
<path d="M-0.30127 803.374C-0.30127 803.374 463.733 866.861 638.037 917.308C833.87 974.02 1041.94 983.915 1217.19 962.232C1459.1 932.342 1599.69 991.227 1599.69 991.227V1080.41H-0.30127V803.374Z" fill="url(#paint5_radial_488_730)"/>
<path d="M1599.64 857.401C1485.7 865.711 1456.75 866.12 1150.61 942.033C980.885 984.094 825.499 1055.33 664.225 1080.49H1919.63V845.077C1919.63 845.077 1772.05 844.77 1599.64 857.401Z" fill="url(#paint6_radial_488_730)"/>
<path opacity="0.1" d="M468.751 959.266H468.93L468.725 959.036C467.522 948.093 462.914 946.252 462.914 946.252C464.061 950.599 465.865 954.746 468.264 958.55C461.557 950.675 456.898 951.545 456.898 951.545C460.408 954.7 464.39 957.288 468.7 959.215L468.751 959.266Z" fill="white"/>
<path opacity="0.1" d="M649.838 1042.39H650.043L649.838 1042.13C648.61 1031.19 644.028 1029.35 644.028 1029.35C645.169 1033.7 646.974 1037.85 649.378 1041.65C642.645 1033.8 638.012 1034.64 638.012 1034.64C641.514 1037.8 645.487 1040.38 649.787 1042.31V1042.44L649.838 1042.39Z" fill="white"/>
<path opacity="0.1" d="M728.888 1009.05H729.067L728.862 1008.82C727.659 997.875 723.051 996.034 723.051 996.034C724.205 1000.38 726.018 1004.53 728.427 1008.33C721.694 1000.48 717.035 1001.33 717.035 1001.33C720.545 1004.48 724.527 1007.07 728.836 1009L728.888 1009.05Z" fill="white"/>
<path opacity="0.1" d="M837.608 1022.78H837.787C837.727 1022.69 837.659 1022.6 837.583 1022.52C836.379 1011.58 831.772 1009.74 831.772 1009.74C832.92 1014.09 834.733 1018.24 837.147 1022.04C830.415 1014.19 825.756 1015.06 825.756 1015.06C829.263 1018.22 833.245 1020.8 837.557 1022.73V1022.86L837.608 1022.78Z" fill="white"/>
<path opacity="0.1" d="M361.362 1022.78H361.567C361.491 1022.7 361.423 1022.61 361.362 1022.52C360.134 1011.58 355.551 1009.74 355.551 1009.74C356.693 1014.09 358.498 1018.24 360.902 1022.04C354.169 1014.19 349.536 1015.06 349.536 1015.06C353.035 1018.21 357.008 1020.8 361.311 1022.73V1022.86L361.362 1022.78Z" fill="white"/>
<path opacity="0.1" d="M53.9178 954.383H54.097C54.0211 954.304 53.9525 954.218 53.8922 954.127C52.6634 943.184 48.0812 941.343 48.0812 941.343C49.2276 945.682 51.0318 949.821 53.4314 953.616C46.6989 945.766 42.0654 946.635 42.0654 946.635C45.5687 949.787 49.5414 952.374 53.841 954.306V954.434L53.9178 954.383Z" fill="white"/>
<path opacity="0.1" d="M179.609 1029.32H179.814L179.609 1029.09C178.38 1018.15 173.798 1016.31 173.798 1016.31C174.935 1020.69 176.74 1024.88 179.148 1028.71C172.416 1020.86 167.782 1021.71 167.782 1021.71C171.284 1024.86 175.257 1027.45 179.558 1029.38L179.609 1029.32Z" fill="white"/>
<path opacity="0.1" d="M275.759 965.787H275.938C275.878 965.695 275.809 965.61 275.733 965.531C274.53 954.587 269.923 952.746 269.923 952.746C271.082 957.094 272.895 961.24 275.298 965.045C268.566 957.195 263.907 958.039 263.907 958.039C267.414 961.198 271.396 963.786 275.708 965.71V965.838L275.759 965.787Z" fill="white"/>
<path opacity="0.1" d="M375.314 896.495H375.493L375.288 896.24C374.085 885.296 369.477 883.455 369.477 883.455C370.619 887.804 372.424 891.952 374.827 895.754C368.12 887.904 363.461 888.748 363.461 888.748C366.971 891.903 370.953 894.491 375.263 896.419V896.546L375.314 896.495Z" fill="white"/>
<path opacity="0.1" d="M173.593 881.896H173.798L173.593 881.665C172.365 870.722 167.782 868.881 167.782 868.881C168.929 873.228 170.733 877.376 173.133 881.18C166.4 873.304 161.767 874.174 161.767 874.174C165.269 877.327 169.242 879.915 173.542 881.844L173.593 881.896Z" fill="white"/>
<path opacity="0.1" d="M607.727 945.306H607.907L607.702 945.076C606.499 934.132 601.891 932.292 601.891 932.292C603.038 936.639 604.842 940.786 607.241 944.59C600.534 936.715 595.875 937.584 595.875 937.584C599.381 940.731 603.353 943.319 607.651 945.255L607.727 945.306Z" fill="white"/>
<path opacity="0.1" d="M468.751 1048.94H468.93L468.725 1048.71C467.522 1037.76 462.914 1035.92 462.914 1035.92C464.061 1040.27 465.865 1044.42 468.264 1048.22C461.557 1040.37 456.898 1041.21 456.898 1041.21C460.408 1044.37 464.39 1046.96 468.7 1048.88L468.751 1048.94Z" fill="white"/>
<path opacity="0.1" d="M1266.21 1015.59H1266.03L1266.24 1015.34C1267.44 1004.42 1272.05 1002.55 1272.05 1002.55C1270.9 1006.9 1269.09 1011.05 1266.7 1014.85C1273.41 1006.98 1278.07 1007.85 1278.07 1007.85C1274.56 1011.01 1270.58 1013.59 1266.26 1015.52L1266.21 1015.59Z" fill="white"/>
<path opacity="0.1" d="M1087.22 984.452H1087.04L1087.25 984.196C1088.45 973.278 1093.06 971.412 1093.06 971.412C1091.91 975.757 1090.1 979.904 1087.71 983.71C1094.42 975.835 1099.08 976.704 1099.08 976.704C1095.56 979.85 1091.58 982.437 1087.28 984.375L1087.22 984.452Z" fill="white"/>
<path opacity="0.1" d="M1135.27 1035.21H1135.09L1135.3 1034.95C1136.53 1024.01 1141.11 1022.17 1141.11 1022.17C1139.97 1026.51 1138.16 1030.66 1135.76 1034.46C1142.49 1026.61 1147.13 1027.46 1147.13 1027.46C1143.63 1030.61 1139.65 1033.2 1135.35 1035.13V1035.26L1135.27 1035.21Z" fill="white"/>
<path opacity="0.1" d="M980.218 1062.95H980.039L980.244 1062.69C981.473 1051.75 986.055 1049.91 986.055 1049.91C984.913 1054.26 983.108 1058.4 980.705 1062.21C987.412 1054.36 992.071 1055.23 992.071 1055.23C988.567 1058.38 984.595 1060.96 980.295 1062.9V1063.02L980.218 1062.95Z" fill="white"/>
<path opacity="0.1" d="M1454.9 1028.71H1454.72L1454.93 1028.48C1456.13 1017.54 1460.74 1015.7 1460.74 1015.7C1459.59 1020.04 1457.79 1024.19 1455.39 1028C1462.1 1020.12 1466.76 1020.99 1466.76 1020.99C1463.25 1024.14 1459.28 1026.72 1454.98 1028.66L1454.9 1028.71Z" fill="white"/>
<path opacity="0.1" d="M1703.24 967.858H1703.06L1703.27 967.602C1704.47 956.658 1709.08 954.818 1709.08 954.818C1707.93 959.167 1706.13 963.315 1703.73 967.116C1710.43 959.266 1715.09 960.11 1715.09 960.11C1711.59 963.274 1707.61 965.864 1703.29 967.781V967.909L1703.24 967.858Z" fill="white"/>
<path opacity="0.1" d="M1801.9 911.325H1801.72L1801.92 911.095C1803.15 900.151 1807.73 898.311 1807.73 898.311C1806.59 902.658 1804.78 906.805 1802.38 910.609C1809.09 902.76 1813.75 903.603 1813.75 903.603C1810.24 906.751 1806.27 909.338 1801.97 911.274L1801.9 911.325Z" fill="white"/>
<path opacity="0.1" d="M1577.47 1048.3H1577.29L1577.5 1048.04C1578.7 1037.12 1583.31 1035.26 1583.31 1035.26C1582.16 1039.6 1580.35 1043.75 1577.96 1047.56C1584.67 1039.68 1589.32 1040.55 1589.32 1040.55C1585.81 1043.7 1581.83 1046.28 1577.52 1048.22L1577.47 1048.3Z" fill="white"/>
<path opacity="0.1" d="M1801.9 1041.75H1801.72L1801.92 1041.52C1803.15 1030.58 1807.73 1028.74 1807.73 1028.74C1806.59 1033.08 1804.78 1037.23 1802.38 1041.04C1809.09 1033.19 1813.75 1034.03 1813.75 1034.03C1810.24 1037.18 1806.27 1039.76 1801.97 1041.7L1801.9 1041.75Z" fill="white"/>
<path opacity="0.1" d="M1517.88 915.621H1517.7L1517.9 915.365C1519.13 904.422 1523.71 902.581 1523.71 902.581C1522.57 906.93 1520.77 911.078 1518.36 914.879C1525.07 907.03 1529.73 907.899 1529.73 907.899C1526.23 911.05 1522.25 913.638 1517.95 915.57V915.697L1517.88 915.621Z" fill="white"/>
<path opacity="0.1" d="M1318.02 939.885H1317.85L1318.05 939.655C1319.28 928.712 1323.86 926.871 1323.86 926.871C1322.71 931.218 1320.91 935.365 1318.51 939.169C1325.22 931.294 1329.88 932.164 1329.88 932.164C1326.37 935.311 1322.4 937.898 1318.1 939.834L1318.02 939.885Z" fill="white"/>
<path opacity="0.1" d="M506.397 112.414C506.397 114.265 505.847 116.074 504.818 117.613C503.788 119.152 502.325 120.352 500.613 121.06C498.901 121.768 497.017 121.954 495.2 121.592C493.382 121.231 491.713 120.34 490.402 119.031C489.092 117.723 488.2 116.055 487.838 114.24C487.477 112.424 487.662 110.543 488.371 108.833C489.081 107.123 490.281 105.661 491.822 104.633C493.363 103.605 495.174 103.056 497.027 103.056C499.512 103.056 501.895 104.042 503.653 105.797C505.41 107.552 506.397 109.932 506.397 112.414Z" fill="#ABEBFF"/>
<path opacity="0.1" d="M807.397 1.51936C807.402 3.37131 806.857 5.18311 805.83 6.72542C804.804 8.26772 803.342 9.47116 801.631 10.1834C799.919 10.8956 798.034 11.0846 796.215 10.7264C794.396 10.3682 792.724 9.47893 791.411 8.17119C790.099 6.86345 789.204 5.19603 788.84 3.38003C788.477 1.56403 788.661 -0.318883 789.369 -2.03035C790.077 -3.74182 791.278 -5.20488 792.82 -6.2343C794.361 -7.26373 796.173 -7.81323 798.027 -7.81323C800.508 -7.81324 802.887 -6.83081 804.643 -5.08134C806.4 -3.33187 807.39 -0.958145 807.397 1.51936Z" fill="#ABEBFF"/>
<path opacity="0.1" d="M1572.4 70.4381C1572.4 72.2911 1571.86 74.104 1570.83 75.6468C1569.8 77.1897 1568.34 78.3931 1566.62 79.1045C1564.91 79.816 1563.03 80.0035 1561.21 79.6432C1559.39 79.2829 1557.71 78.3912 1556.4 77.0809C1555.09 75.7706 1554.2 74.1007 1553.84 72.283C1553.48 70.4654 1553.66 68.5816 1554.38 66.8706C1555.09 65.1596 1556.29 63.6983 1557.84 62.672C1559.38 61.6456 1561.2 61.1004 1563.05 61.1055C1565.53 61.1055 1567.91 62.0888 1569.66 63.839C1571.41 65.5892 1572.4 67.9629 1572.4 70.4381Z" fill="#ABEBFF"/>
<path opacity="0.1" d="M1823.12 534.058C1823.12 535.909 1822.57 537.719 1821.54 539.258C1820.51 540.797 1819.05 541.996 1817.34 542.704C1815.62 543.413 1813.74 543.598 1811.92 543.237C1810.1 542.876 1808.44 541.984 1807.12 540.676C1805.81 539.367 1804.92 537.699 1804.56 535.884C1804.2 534.069 1804.38 532.187 1805.09 530.477C1805.8 528.767 1807 527.306 1808.54 526.277C1810.09 525.249 1811.9 524.7 1813.75 524.7C1814.98 524.7 1816.2 524.942 1817.34 525.413C1818.47 525.883 1819.51 526.572 1820.38 527.441C1821.25 528.31 1821.94 529.342 1822.41 530.477C1822.88 531.613 1823.12 532.83 1823.12 534.058Z" fill="#ABEBFF"/>
<path opacity="0.1" d="M1358.4 122.377C1358.4 124.229 1357.86 126.04 1356.83 127.583C1355.8 129.125 1354.34 130.328 1352.63 131.041C1350.92 131.753 1349.03 131.942 1347.22 131.584C1345.4 131.225 1343.72 130.336 1342.41 129.028C1341.1 127.721 1340.2 126.053 1339.84 124.237C1339.48 122.421 1339.66 120.538 1340.37 118.827C1341.08 117.115 1342.28 115.652 1343.82 114.623C1345.36 113.594 1347.17 113.044 1349.03 113.044C1351.51 113.044 1353.89 114.026 1355.64 115.776C1357.4 117.525 1358.39 119.899 1358.4 122.377Z" fill="#ABEBFF"/>
<path opacity="0.1" d="M1826.4 233.246C1826.4 235.099 1825.86 236.912 1824.83 238.455C1823.8 239.998 1822.34 241.201 1820.62 241.912C1818.91 242.624 1817.03 242.811 1815.21 242.451C1813.39 242.091 1811.71 241.199 1810.4 239.889C1809.09 238.578 1808.2 236.909 1807.84 235.091C1807.48 233.273 1807.66 231.39 1808.38 229.679C1809.09 227.967 1810.29 226.506 1811.84 225.48C1813.38 224.454 1815.2 223.908 1817.05 223.913C1819.53 223.92 1821.9 224.906 1823.65 226.654C1825.4 228.403 1826.39 230.773 1826.4 233.246Z" fill="#ABEBFF"/>
<path opacity="0.1" d="M336.397 402.072C336.397 403.923 335.848 405.732 334.818 407.271C333.789 408.81 332.325 410.01 330.613 410.718C328.901 411.426 327.018 411.612 325.2 411.251C323.383 410.89 321.713 409.998 320.403 408.689C319.093 407.381 318.2 405.713 317.839 403.898C317.477 402.083 317.663 400.201 318.372 398.491C319.081 396.781 320.282 395.32 321.823 394.291C323.363 393.263 325.175 392.714 327.028 392.714C329.513 392.714 331.896 393.7 333.653 395.455C335.41 397.21 336.397 399.59 336.397 402.072Z" fill="#ABEBFF"/>
<path opacity="0.1" d="M798.031 597.188C798.037 599.04 797.491 600.851 796.465 602.394C795.438 603.936 793.977 605.139 792.265 605.852C790.554 606.564 788.669 606.753 786.85 606.395C785.031 606.036 783.359 605.147 782.046 603.839C780.733 602.532 779.838 600.864 779.475 599.048C779.111 597.232 779.295 595.349 780.004 593.638C780.712 591.926 781.913 590.463 783.454 589.434C784.996 588.404 786.808 587.855 788.662 587.855C791.143 587.855 793.522 588.837 795.278 590.587C797.035 592.336 798.025 594.71 798.031 597.188Z" fill="#ABEBFF"/>
<path opacity="0.1" d="M1080.7 615.904C1080.7 617.756 1080.15 619.566 1079.11 621.106C1078.08 622.645 1076.62 623.845 1074.91 624.552C1073.19 625.26 1071.31 625.444 1069.49 625.08C1067.67 624.717 1066 623.823 1064.69 622.512C1063.38 621.201 1062.49 619.531 1062.13 617.714C1061.78 615.897 1061.96 614.015 1062.68 612.305C1063.39 610.595 1064.6 609.136 1066.14 608.111C1067.68 607.085 1069.5 606.541 1071.35 606.546C1072.58 606.542 1073.8 606.782 1074.94 607.252C1076.07 607.721 1077.11 608.411 1077.98 609.281C1078.84 610.151 1079.53 611.184 1080 612.321C1080.47 613.457 1080.7 614.675 1080.7 615.904Z" fill="#ABEBFF"/>
<path opacity="0.1" d="M1327.27 561.059C1327.27 562.91 1326.72 564.719 1325.69 566.258C1324.66 567.797 1323.19 568.997 1321.48 569.705C1319.77 570.413 1317.89 570.599 1316.07 570.237C1314.25 569.876 1312.58 568.985 1311.27 567.676C1309.96 566.368 1309.07 564.7 1308.71 562.885C1308.35 561.069 1308.53 559.188 1309.24 557.478C1309.95 555.768 1311.15 554.306 1312.69 553.278C1314.23 552.25 1316.04 551.701 1317.9 551.701C1319.13 551.698 1320.35 551.937 1321.49 552.406C1322.62 552.876 1323.66 553.565 1324.53 554.434C1325.4 555.304 1326.09 556.337 1326.56 557.474C1327.03 558.611 1327.27 559.829 1327.27 561.059Z" fill="#ABEBFF"/>
<path opacity="0.1" d="M1605.04 383.075C1605.04 384.926 1604.49 386.735 1603.46 388.274C1602.43 389.813 1600.97 391.012 1599.26 391.721C1597.55 392.429 1595.66 392.614 1593.84 392.253C1592.03 391.892 1590.36 391.001 1589.05 389.692C1587.74 388.383 1586.84 386.716 1586.48 384.901C1586.12 383.085 1586.31 381.204 1587.02 379.494C1587.73 377.784 1588.93 376.322 1590.47 375.294C1592.01 374.266 1593.82 373.717 1595.67 373.717C1598.16 373.717 1600.54 374.703 1602.3 376.458C1604.05 378.213 1605.04 380.593 1605.04 383.075Z" fill="#ABEBFF"/>
<path opacity="0.1" d="M1885.4 -6.44567C1885.4 -4.5948 1884.85 -2.7855 1883.82 -1.24655C1882.79 0.292386 1881.32 1.49183 1879.61 2.20013C1877.9 2.90843 1876.02 3.09377 1874.2 2.73268C1872.38 2.37159 1870.71 1.48032 1869.4 0.171555C1868.09 -1.13721 1867.2 -2.8047 1866.84 -4.62001C1866.48 -6.43531 1866.66 -8.31689 1867.37 -10.0269C1868.08 -11.7369 1869.28 -13.1984 1870.82 -14.2267C1872.36 -15.255 1874.17 -15.8038 1876.03 -15.8038C1878.51 -15.8038 1880.9 -14.8179 1882.65 -13.0629C1884.41 -11.3079 1885.4 -8.9276 1885.4 -6.44567Z" fill="#ABEBFF"/>
<path opacity="0.1" d="M522.397 579.837C522.402 581.689 521.857 583.501 520.83 585.043C519.804 586.585 518.342 587.789 516.631 588.501C514.919 589.213 513.034 589.402 511.215 589.044C509.396 588.686 507.724 587.796 506.412 586.489C505.099 585.181 504.204 583.513 503.84 581.697C503.477 579.881 503.661 577.999 504.369 576.287C505.077 574.576 506.278 573.113 507.82 572.083C509.361 571.054 511.173 570.504 513.027 570.504C515.508 570.504 517.887 571.487 519.643 573.236C521.4 574.986 522.39 577.359 522.397 579.837Z" fill="#ABEBFF"/>
<path opacity="0.1" d="M679.397 242.261C679.397 244.113 678.847 245.923 677.816 247.463C676.785 249.002 675.32 250.202 673.607 250.909C671.893 251.617 670.008 251.801 668.19 251.437C666.372 251.074 664.703 250.18 663.393 248.869C662.084 247.558 661.194 245.888 660.835 244.071C660.477 242.254 660.666 240.371 661.379 238.662C662.092 236.952 663.297 235.493 664.841 234.467C666.385 233.442 668.199 232.898 670.053 232.903C671.282 232.903 672.499 233.145 673.635 233.616C674.77 234.086 675.801 234.776 676.669 235.645C677.537 236.515 678.225 237.546 678.693 238.682C679.161 239.817 679.4 241.033 679.397 242.261Z" fill="#ABEBFF"/>
<path opacity="0.1" d="M171.111 209.182C171.116 211.035 170.57 212.848 169.542 214.391C168.515 215.934 167.052 217.137 165.339 217.849C163.626 218.56 161.74 218.747 159.92 218.387C158.1 218.027 156.428 217.135 155.116 215.825C153.804 214.515 152.912 212.845 152.551 211.027C152.19 209.209 152.378 207.326 153.09 205.615C153.802 203.904 155.007 202.442 156.552 201.416C158.097 200.39 159.912 199.844 161.767 199.85C164.245 199.85 166.622 200.833 168.374 202.583C170.126 204.333 171.111 206.707 171.111 209.182Z" fill="#ABEBFF"/>
<path opacity="0.1" d="M63.4407 2.30545C63.4407 4.1574 62.8905 5.96772 61.8599 7.50721C60.8292 9.0467 59.3644 10.2461 57.6509 10.9537C55.9374 11.6612 54.0523 11.845 52.2341 11.4819C50.416 11.1187 48.7466 10.2249 47.4373 8.91358C46.128 7.60226 45.2377 5.93239 44.8791 4.1154C44.5204 2.29842 44.7097 0.416016 45.4227 -1.29351C46.1358 -3.00304 47.3406 -4.4628 48.8848 -5.48801C50.4289 -6.51322 52.2429 -7.05776 54.097 -7.0527C55.3271 -7.05609 56.5458 -6.81617 57.6826 -6.34677C58.8194 -5.87736 59.852 -5.18778 60.7206 -4.31778C61.5893 -3.44778 62.2769 -2.41459 62.7437 -1.27783C63.2106 -0.141063 63.4474 1.07678 63.4407 2.30545Z" fill="#ABEBFF"/>
<path opacity="0.1" d="M92.5212 483.356C92.5263 485.207 91.9811 487.019 90.9546 488.562C89.9282 490.104 88.4667 491.307 86.7552 492.02C85.0436 492.732 83.159 492.921 81.3398 492.563C79.5207 492.204 77.8489 491.315 76.536 490.007C75.2231 488.7 74.3282 487.032 73.9646 485.216C73.601 483.4 73.7851 481.517 74.4935 479.806C75.2018 478.094 76.4027 476.631 77.944 475.602C79.4853 474.572 81.2978 474.023 83.1519 474.023C85.6324 474.023 88.0116 475.005 89.768 476.755C91.5243 478.504 92.5144 480.878 92.5212 483.356Z" fill="#ABEBFF"/>
<path opacity="0.1" d="M1306.4 324.164C1306.4 326.016 1305.85 327.827 1304.82 329.366C1303.79 330.905 1302.32 332.105 1300.61 332.812C1298.89 333.52 1297.01 333.704 1295.19 333.341C1293.37 332.978 1291.7 332.084 1290.39 330.772C1289.08 329.461 1288.19 327.791 1287.84 325.974C1287.48 324.157 1287.67 322.275 1288.38 320.565C1289.09 318.856 1290.3 317.396 1291.84 316.371C1293.39 315.346 1295.2 314.801 1297.05 314.806C1298.28 314.806 1299.5 315.048 1300.63 315.519C1301.77 315.99 1302.8 316.679 1303.67 317.549C1304.54 318.418 1305.22 319.45 1305.69 320.585C1306.16 321.72 1306.4 322.937 1306.4 324.164Z" fill="#ABEBFF"/>
<defs>
<linearGradient id="paint0_linear_488_730" x1="959.659" y1="-162.528" x2="959.659" y2="202.47" gradientUnits="userSpaceOnUse">
<stop stop-color="#485653"/>
<stop offset="0.15" stop-color="#3D4C4E"/>
<stop offset="0.7" stop-color="#1A2A3C"/>
<stop offset="1" stop-color="#0C1D35"/>
</linearGradient>
<radialGradient id="paint1_radial_488_730" cx="0" cy="0" r="1" gradientUnits="userSpaceOnUse" gradientTransform="translate(489.486 601.151) scale(337.959 337.558)">
<stop stop-color="#3E5B66"/>
<stop offset="1" stop-color="#1D3F4D"/>
</radialGradient>
<radialGradient id="paint2_radial_488_730" cx="0" cy="0" r="1" gradientUnits="userSpaceOnUse" gradientTransform="translate(1286.97 509.512) scale(406.769 406.287)">
<stop stop-color="#3E5B66"/>
<stop offset="1" stop-color="#1D3F4D"/>
</radialGradient>
<radialGradient id="paint3_radial_488_730" cx="0" cy="0" r="1" gradientUnits="userSpaceOnUse" gradientTransform="translate(1026.09 589.159) scale(281.794 281.461)">
<stop stop-color="#3E5B66"/>
<stop offset="1" stop-color="#1D3F4D"/>
</radialGradient>
<radialGradient id="paint4_radial_488_730" cx="0" cy="0" r="1" gradientUnits="userSpaceOnUse" gradientTransform="translate(986.978 484.663) scale(756.043 468.191)">
<stop stop-color="#475047"/>
<stop offset="1" stop-color="#000923"/>
</radialGradient>
<radialGradient id="paint5_radial_488_730" cx="0" cy="0" r="1" gradientUnits="userSpaceOnUse" gradientTransform="translate(620.001 667.194) rotate(11.9962) scale(571.239 359.491)">
<stop stop-color="#46534D"/>
<stop offset="1" stop-color="#000423"/>
</radialGradient>
<radialGradient id="paint6_radial_488_730" cx="0" cy="0" r="1" gradientUnits="userSpaceOnUse" gradientTransform="translate(1234.41 715.178) rotate(-9.82857) scale(680.399 299.042)">
<stop stop-color="#475047"/>
<stop offset="1" stop-color="#000E26"/>
</radialGradient>
</defs>
</svg>
