<svg xmlns="http://www.w3.org/2000/svg" xmlns:xlink="http://www.w3.org/1999/xlink" viewBox="0 0 847.09 500.24"><defs><style>.cls-1{fill:url(#linear-gradient);}.cls-2,.cls-7{fill:#fff;}.cls-2{opacity:0.05;}.cls-3,.cls-4{opacity:0.5;}.cls-3{fill:url(#radial-gradient);}.cls-4{fill:url(#radial-gradient-2);}.cls-5{fill:url(#radial-gradient-3);}.cls-6{fill:url(#radial-gradient-4);}.cls-11,.cls-7{opacity:0.1;}.cls-8{fill:#052b2f;}.cls-9{fill:url(#radial-gradient-5);}.cls-10{fill:url(#radial-gradient-6);}.cls-11{fill:#abebff;}.cls-12{fill:none;}</style><linearGradient id="linear-gradient" x1="428.4" y1="-47.7" x2="428.4" y2="113.14" gradientUnits="userSpaceOnUse"><stop offset="0" stop-color="#485653"/><stop offset="0.15" stop-color="#3d4c4e"/><stop offset="0.7" stop-color="#1a2a3c"/><stop offset="1" stop-color="#0c1d35"/></linearGradient><radialGradient id="radial-gradient" cx="244.73" cy="312.78" r="132.02" gradientUnits="userSpaceOnUse"><stop offset="0" stop-color="#3e5b66"/><stop offset="1" stop-color="#1d3f4d"/></radialGradient><radialGradient id="radial-gradient-2" cx="556.26" cy="276.94" r="158.9" xlink:href="#radial-gradient"/><radialGradient id="radial-gradient-3" cx="454.35" cy="308.09" r="110.08" xlink:href="#radial-gradient"/><radialGradient id="radial-gradient-4" cx="439.07" cy="266.76" r="295.34" gradientTransform="translate(0 101.83) scale(1 0.62)" gradientUnits="userSpaceOnUse"><stop offset="0" stop-color="#475047"/><stop offset="1" stop-color="#000923"/></radialGradient><radialGradient id="radial-gradient-5" cx="295.9" cy="337.69" r="223.16" gradientTransform="translate(50.56 68.95) rotate(12.01) scale(1 0.63)" gradientUnits="userSpaceOnUse"><stop offset="0" stop-color="#46534d"/><stop offset="1" stop-color="#000423"/></radialGradient><radialGradient id="radial-gradient-6" cx="535.47" cy="355.91" fy="323.0175215589895" r="265.8" gradientTransform="translate(-18.63 294.59) rotate(-9.84) scale(1 0.44)" gradientUnits="userSpaceOnUse"><stop offset="0" stop-color="#475047"/><stop offset="1" stop-color="#000e26"/></radialGradient></defs><g id="Layer_2" data-name="Layer 2"><g id="Artboard_2" data-name="Artboard 2"><rect class="cls-1" x="53.4" y="0.23" width="750" height="500"/><path class="cls-2" d="M38.73,67.36c2.67,0,169.39,27.86,261.39,9.1S494.23,55.4,546.51,74.7,812.69,89.12,812.69,89.12V0h-774Z"/><path class="cls-2" d="M0,346.57s154.13,33,240.27,7.46c74.24-22,257.37-18.51,329.91,0s276.91.21,276.91.21V316.85s-177.42,21.27-236.9,8.87-246.78-4.29-314.13,1.73S91.63,334.7,41.63,324.51Z"/><path class="cls-3" d="M329.65,374.39a43.94,43.94,0,0,0-6.11.43,61.09,61.09,0,0,0-91.65-22.2,44.08,44.08,0,0,0-40.78-27.35c-1,0-1.92,0-2.88.1a83.75,83.75,0,1,0-64.5,137.18H329.65a44.08,44.08,0,1,0,0-88.16Z"/><path class="cls-4" d="M754.46,311.24a70.9,70.9,0,0,0-10.06.72c-15.11-15.86-37.17-25.87-61.75-25.87-38.16,0-70.24,24.09-79.66,56.8a60,60,0,0,0-50.18,51.22A39.45,39.45,0,1,0,542,471.5H825.14V381.92A70.68,70.68,0,0,0,754.46,311.24Z"/><path class="cls-5" d="M533.53,397c-.37,0-.74,0-1.1,0a34.55,34.55,0,0,0-18.86-22.58C503.36,354.13,480.5,340,453.93,340c-24.42,0-45.7,12-56.91,29.67a26.89,26.89,0,0,0-23.35,17.27,43.49,43.49,0,0,0-7.27-.62c-23,0-41.67,17.83-41.67,39.82a38.22,38.22,0,0,0,.36,5.16l-.36.2v34.45h208.8a34.45,34.45,0,1,0,0-68.9Z"/><path class="cls-6" d="M793.61,352l-.79-1.61,1.24.35-2.64-5,.91.22-2.38-4-2.42,4.14.89-.08-2.32,4.71a222.47,222.47,0,0,0-35.56-2.26l-2.49-4.71.91.22-2.38-4-2.42,4.14.9-.08-2.29,4.62c-24.89,1-57.88,5.6-101.1,17.91l-3-5.9,1.05.26L637,356.14l-2.78,5,1-.1-2.83,6,1.68-.56-1.93,4.31C608.72,381.42,588.26,393.64,568,404l-2.93-5.76,1.05.26-2.73-4.78-2.78,5,1-.1-2.83,6,1.69-.56-2.13,4.75-2.26,1.06-1.93-3.8,1.05.26-2.73-4.77-2.78,5,1-.1-2.83,6,1.69-.56-.54,1.21a188.18,188.18,0,0,1-27.6,9.6l-1.08-2.32,1.41.42-3-6,1,.26-2.73-4.77-2.78,5,1-.1-2.84,6,1.69-.56-1.86,4.15A139.6,139.6,0,0,1,482.5,427c-31-.77-75.16-7.82-120.82-20l-1.52-3.24,1.42.42-3-6,1,.26-2.73-4.78-2.78,5,1-.1-2.78,5.86c-15.17-4.27-30.4-9.11-45.3-14.47l-.81-1.74,1.41.43-3-6,1,.27-2.74-4.78-2.78,5,1-.1-1.93,4.08-3.11-1.17-1-2.2,1.41.43-3-6,1,.27-2.74-4.78-2.78,5,1-.1-2,4.27c-21.95-8.32-49.22-14.49-71.07-18.59l-1.31-2.82,1.41.42-3-6,1,.26-2.74-4.78-2.78,5,1-.1-2.83,6,1.69-.56-.52,1.15c-26.45-3-49.6-4.69-69.4-5.65l-1.1-2.26,1.23.36-2.64-5,.91.22-2.38-4-2.41,4.15.89-.09-2.46,5L133,355l-.82,1.76c-17-.69-31.38-.8-42.95-.62l-.64-1.32,1.23.36-2.64-5,.92.22-2.38-4-2.42,4.15.89-.09-2.46,5,1.47-.47-.6,1.27q-3.33.09-6.29.2l-1.42-2.92,1.23.35-2.64-5,.91.22-2.38-4-2.42,4.14.9-.08-2.47,5,1.47-.46-1.46,3.13C58.32,357.4,53.4,358,53.4,358V500.24h750V353.82C800.82,353.36,797.58,352.68,793.61,352Zm-440,52.82-1.13-.31L354,404ZM567,404.46l-.33-.71,1.09.32ZM640.66,367l-.37-.78,1.3.38Zm109.11-18.53h-.27l0-.09Zm-5.71.09,0,.06h-.18Zm43.37,2-.18.37-.66-.11Z"/><path class="cls-7" d="M195.45,369.41l.05,0-.05-.07c-.32-2.81-1.5-3.3-1.5-3.3a11.39,11.39,0,0,0,1.38,3.17c-1.73-2-2.92-1.81-2.92-1.81a11.38,11.38,0,0,0,3,2l0,0Z"/><path class="cls-7" d="M188,391.68l0,0,0-.06c-.32-2.82-1.5-3.31-1.5-3.31a11.25,11.25,0,0,0,1.38,3.17c-1.73-2-2.93-1.8-2.93-1.8a11.7,11.7,0,0,0,3,2v0Z"/><path class="cls-7" d="M235.85,390l.05,0s0,0-.05-.07c-.32-2.81-1.5-3.3-1.5-3.3a11.39,11.39,0,0,0,1.38,3.17c-1.73-2-2.93-1.81-2.93-1.81a11.54,11.54,0,0,0,3,2v0Z"/><path class="cls-7" d="M213.58,407.07l0,0-.06-.06c-.31-2.82-1.49-3.3-1.49-3.3a11.3,11.3,0,0,0,1.38,3.16c-1.73-2-2.93-1.8-2.93-1.8a11.87,11.87,0,0,0,3,2l0,0Z"/><path class="cls-7" d="M264.47,421.72l0,0,0-.07c-.31-2.81-1.5-3.3-1.5-3.3a11.39,11.39,0,0,0,1.38,3.17c-1.73-2-2.92-1.81-2.92-1.81a11.54,11.54,0,0,0,3,2l0,0Z"/><path class="cls-7" d="M314.49,434.91l.05,0-.05-.06c-.31-2.82-1.49-3.3-1.49-3.3a11.34,11.34,0,0,0,1.37,3.16c-1.73-2-2.92-1.8-2.92-1.8a11.81,11.81,0,0,0,3,2l0,0Z"/><path class="cls-7" d="M279.52,412.48l.05,0-.05-.06c-.32-2.82-1.5-3.31-1.5-3.31a11.25,11.25,0,0,0,1.38,3.17c-1.73-2-2.93-1.8-2.93-1.8a11.7,11.7,0,0,0,3,2v0Z"/><path class="cls-7" d="M322.52,414.64l.05,0-.05-.06c-.32-2.82-1.5-3.31-1.5-3.31a11.25,11.25,0,0,0,1.38,3.17c-1.73-2-2.93-1.8-2.93-1.8a11.7,11.7,0,0,0,3,2v0Z"/><path class="cls-7" d="M354,414.64l0,0,0-.06c-.32-2.82-1.5-3.31-1.5-3.31a11.25,11.25,0,0,0,1.38,3.17c-1.73-2-2.92-1.8-2.92-1.8a11.53,11.53,0,0,0,3,2l0,0Z"/><path class="cls-7" d="M378.4,442.71l0,0-.05-.06c-.31-2.82-1.49-3.3-1.49-3.3a11.34,11.34,0,0,0,1.37,3.16c-1.72-2-2.92-1.8-2.92-1.8a11.81,11.81,0,0,0,3,2l0,0Z"/><path class="cls-7" d="M428.45,436.64l-.05,0,.05-.06c.32-2.82,1.5-3.31,1.5-3.31a11.25,11.25,0,0,1-1.38,3.17c1.73-2,2.92-1.8,2.92-1.8a11.53,11.53,0,0,1-3,2l0,0Z"/><path class="cls-7" d="M444.85,453.66l0,0,.05-.06c.31-2.82,1.49-3.31,1.49-3.31a11.29,11.29,0,0,1-1.37,3.17c1.73-2,2.92-1.8,2.92-1.8a11.7,11.7,0,0,1-3,2l0,0Z"/><path class="cls-7" d="M482.6,441l-.05,0,.05-.06c.32-2.82,1.5-3.3,1.5-3.3a11.3,11.3,0,0,1-1.38,3.16c1.73-2,2.93-1.8,2.93-1.8a11.7,11.7,0,0,1-3,2v0Z"/><path class="cls-7" d="M667.9,378.77l0,0,0-.07c.32-2.81,1.5-3.3,1.5-3.3A11.39,11.39,0,0,1,668,378.6c1.73-2,2.92-1.81,2.92-1.81a11.38,11.38,0,0,1-3,2l0,0Z"/><path class="cls-7" d="M675.35,362.27l-.05,0,.06-.06c.31-2.82,1.49-3.31,1.49-3.31a11.39,11.39,0,0,1-1.38,3.17c1.73-2,2.93-1.8,2.93-1.8a11.7,11.7,0,0,1-3,2l0,0Z"/><path class="cls-7" d="M621.09,389l-.05,0,.06-.06c.31-2.82,1.49-3.3,1.49-3.3a11.3,11.3,0,0,1-1.38,3.16c1.73-2,2.93-1.8,2.93-1.8a11.87,11.87,0,0,1-3,2l0,0Z"/><path class="cls-7" d="M645.69,404.44l0,0s0,0,.05-.07c.31-2.81,1.49-3.3,1.49-3.3a11.42,11.42,0,0,1-1.37,3.17c1.72-2,2.92-1.81,2.92-1.81a11.54,11.54,0,0,1-3,2l0,0Z"/><path class="cls-7" d="M570.72,429.11l-.05,0,.05-.07c.32-2.81,1.5-3.3,1.5-3.3a11.53,11.53,0,0,1-1.38,3.17c1.73-2,2.93-1.81,2.93-1.81a11.82,11.82,0,0,1-3,2v0Z"/><path class="cls-7" d="M573.81,409.84l0,0,.05-.06c.31-2.82,1.49-3.31,1.49-3.31a11.29,11.29,0,0,1-1.37,3.17c1.72-2,2.92-1.8,2.92-1.8a11.7,11.7,0,0,1-3,2l0,0Z"/><path class="cls-7" d="M598.54,413.2l0,0s0,0,0-.07c.31-2.81,1.49-3.3,1.49-3.3a11.73,11.73,0,0,1-1.37,3.17c1.72-2,2.92-1.81,2.92-1.81a11.54,11.54,0,0,1-3,2l0,0Z"/><path class="cls-7" d="M525.89,436.64l0,0,0-.06c.31-2.82,1.5-3.31,1.5-3.31a11.25,11.25,0,0,1-1.38,3.17c1.73-2,2.92-1.8,2.92-1.8a11.53,11.53,0,0,1-3,2l0,0Z"/><path class="cls-7" d="M539,425.75l0,0,0-.06c.32-2.82,1.5-3.31,1.5-3.31a11.39,11.39,0,0,1-1.38,3.17c1.73-2,2.92-1.8,2.92-1.8a11.53,11.53,0,0,1-3,2l0,0Z"/><path class="cls-7" d="M273.52,388.31l.05,0-.05-.06c-.32-2.82-1.5-3.3-1.5-3.3a11.3,11.3,0,0,0,1.38,3.16c-1.73-2-2.93-1.8-2.93-1.8a11.82,11.82,0,0,0,3,2v0Z"/><polygon class="cls-8" points="232.19 396.07 226.51 405.79 228.61 405.6 222.83 417.3 226.27 416.19 221.45 426.52 244.16 426.52 238.93 415.78 241.82 416.61 235.63 404.91 237.76 405.43 232.19 396.07"/><polygon class="cls-8" points="62.67 366.07 57 375.79 59.1 375.6 53.32 387.3 56.76 386.19 51.94 396.52 74.65 396.52 69.42 385.78 72.31 386.61 66.12 374.91 68.25 375.43 62.67 366.07"/><polygon class="cls-8" points="194.88 391.87 189.21 401.59 191.3 401.4 185.52 413.1 188.96 411.99 184.15 422.32 206.85 422.32 201.63 411.58 204.51 412.41 198.32 400.71 200.46 401.23 194.88 391.87"/><polygon class="cls-8" points="74.03 371.43 68.35 381.15 70.45 380.95 64.67 392.65 68.11 391.55 63.3 401.87 86 401.87 80.77 391.14 83.66 391.96 77.47 380.27 79.61 380.78 74.03 371.43"/><polygon class="cls-8" points="140.03 381.29 134.35 391.02 136.45 390.82 130.67 402.52 134.11 401.42 129.29 411.74 152 411.74 146.77 401 149.66 401.83 143.47 390.13 145.61 390.65 140.03 381.29"/><polygon class="cls-8" points="597.88 406.51 592.2 416.24 594.3 416.04 588.52 427.74 591.96 426.64 587.14 436.96 609.85 436.96 604.62 426.23 607.51 427.05 601.32 415.35 603.46 415.87 597.88 406.51"/><polygon class="cls-8" points="658.11 388.81 651.52 400.11 653.96 399.88 647.25 413.46 651.24 412.19 645.65 424.17 672.02 424.17 665.95 411.71 669.3 412.67 662.11 399.08 664.59 399.68 658.11 388.81"/><polygon class="cls-8" points="756.62 383.41 750.03 394.7 752.47 394.48 745.75 408.06 749.75 406.78 744.15 418.77 770.53 418.77 764.45 406.3 767.81 407.26 760.62 393.68 763.1 394.28 756.62 383.41"/><polygon class="cls-8" points="789.49 383.41 782.9 394.7 785.34 394.48 778.63 408.06 782.62 406.78 777.03 418.77 803.4 418.77 797.33 406.3 800.68 407.26 793.49 393.68 795.97 394.28 789.49 383.41"/><polygon class="cls-8" points="616.16 395.55 609.57 406.84 612 406.61 605.29 420.2 609.29 418.92 603.69 430.9 630.06 430.9 623.99 418.44 627.35 419.4 620.15 405.81 622.64 406.41 616.16 395.55"/><polygon class="cls-8" points="429.47 440.25 425.09 447.75 426.71 447.6 422.24 456.63 424.9 455.78 421.18 463.75 438.71 463.75 434.67 455.46 436.9 456.1 432.12 447.07 433.77 447.47 429.47 440.25"/><polygon class="cls-8" points="416.47 444.85 412.09 452.36 413.71 452.21 409.24 461.24 411.9 460.39 408.18 468.36 425.71 468.36 421.67 460.07 423.9 460.71 419.12 451.68 420.77 452.08 416.47 444.85"/><polygon class="cls-8" points="506.37 436.66 501.99 444.17 503.61 444.01 499.15 453.05 501.81 452.19 498.09 460.16 515.62 460.16 511.58 451.88 513.81 452.51 509.03 443.48 510.68 443.88 506.37 436.66"/><path class="cls-9" d="M53.4,391.87s181.27,24.83,249.36,44.56C379.26,458.61,460.54,462.48,529,454c94.5-11.69,149.42,11.34,149.42,11.34v34.88H53.4Z"/><path class="cls-10" d="M678.4,413c-44.51,3.25-55.82,3.41-175.41,33.1-66.3,16.45-127,44.31-190,54.15H803.4V408.18S745.75,408.06,678.4,413Z"/><path class="cls-7" d="M236.63,452.84l.07,0-.08-.09c-.47-4.28-2.27-5-2.27-5a17.29,17.29,0,0,0,2.09,4.81c-2.62-3.08-4.44-2.74-4.44-2.74a17.71,17.71,0,0,0,4.61,3l0,0Z"/><path class="cls-7" d="M307.37,485.35l.08,0-.08-.1c-.48-4.28-2.27-5-2.27-5a17.16,17.16,0,0,0,2.09,4.81c-2.63-3.07-4.44-2.74-4.44-2.74a17.71,17.71,0,0,0,4.6,3l0,.05Z"/><path class="cls-7" d="M338.25,472.31l.07,0-.08-.09c-.47-4.28-2.27-5-2.27-5a17.26,17.26,0,0,0,2.1,4.81c-2.63-3.07-4.45-2.74-4.45-2.74a17.71,17.71,0,0,0,4.61,3l0,0Z"/><path class="cls-7" d="M380.72,477.68l.07,0a.7.7,0,0,0-.08-.1c-.47-4.28-2.27-5-2.27-5a17.12,17.12,0,0,0,2.1,4.81c-2.63-3.07-4.45-2.73-4.45-2.73a17.6,17.6,0,0,0,4.61,3l0,.05Z"/><path class="cls-7" d="M194.68,477.68l.08,0a.7.7,0,0,1-.08-.1c-.48-4.28-2.27-5-2.27-5a17.16,17.16,0,0,0,2.09,4.81c-2.63-3.07-4.44-2.73-4.44-2.73a17.59,17.59,0,0,0,4.6,3l0,.05Z"/><path class="cls-7" d="M74.58,450.93l.07,0a.7.7,0,0,1-.08-.1c-.48-4.28-2.27-5-2.27-5a17.21,17.21,0,0,0,2.09,4.8c-2.63-3.07-4.44-2.73-4.44-2.73a17.76,17.76,0,0,0,4.6,3l0,.05Z"/><path class="cls-7" d="M123.68,480.24l.08,0-.08-.09c-.48-4.28-2.27-5-2.27-5A17.29,17.29,0,0,0,123.5,480c-2.63-3.07-4.44-2.74-4.44-2.74a17.71,17.71,0,0,0,4.6,3l0,0Z"/><path class="cls-7" d="M161.24,455.39l.07,0a.7.7,0,0,0-.08-.1c-.47-4.28-2.27-5-2.27-5a17.42,17.42,0,0,0,2.1,4.81c-2.63-3.07-4.45-2.74-4.45-2.74a17.61,17.61,0,0,0,4.61,3l0,.05Z"/><path class="cls-7" d="M200.13,428.29l.07,0-.08-.1c-.47-4.28-2.27-5-2.27-5a17.16,17.16,0,0,0,2.09,4.81c-2.62-3.07-4.44-2.74-4.44-2.74a17.71,17.71,0,0,0,4.61,3l0,.05Z"/><path class="cls-7" d="M121.33,422.58l.08,0-.08-.09c-.48-4.28-2.27-5-2.27-5a17.29,17.29,0,0,0,2.09,4.81c-2.63-3.08-4.44-2.74-4.44-2.74a17.71,17.71,0,0,0,4.6,3l0,0Z"/><path class="cls-7" d="M290.92,447.38l.07,0-.08-.09c-.47-4.28-2.27-5-2.27-5a17.29,17.29,0,0,0,2.09,4.81c-2.62-3.08-4.44-2.74-4.44-2.74a17.88,17.88,0,0,0,4.6,3l0,0Z"/><path class="cls-7" d="M236.63,487.91l.07,0-.08-.09c-.47-4.28-2.27-5-2.27-5a17.29,17.29,0,0,0,2.09,4.81c-2.62-3.07-4.44-2.74-4.44-2.74a17.71,17.71,0,0,0,4.61,3l0,0Z"/><path class="cls-7" d="M548.15,474.87l-.07,0,.08-.1c.47-4.27,2.27-5,2.27-5a17.43,17.43,0,0,1-2.09,4.81c2.62-3.08,4.44-2.74,4.44-2.74a17.6,17.6,0,0,1-4.61,3l0,0Z"/><path class="cls-7" d="M478.23,462.69l-.07,0,.08-.1c.47-4.27,2.27-5,2.27-5a17.43,17.43,0,0,1-2.09,4.81c2.62-3.08,4.44-2.74,4.44-2.74a18,18,0,0,1-4.61,3l0,0Z"/><path class="cls-7" d="M497,482.54l-.07,0,.08-.1c.48-4.28,2.27-5,2.27-5a17.16,17.16,0,0,1-2.09,4.81c2.63-3.07,4.44-2.74,4.44-2.74a17.6,17.6,0,0,1-4.6,3l0,.05Z"/><path class="cls-7" d="M436.43,493.39l-.07,0,.08-.1c.48-4.28,2.27-5,2.27-5a17.16,17.16,0,0,1-2.09,4.81c2.62-3.07,4.44-2.73,4.44-2.73a17.76,17.76,0,0,1-4.6,3l0,.05Z"/><path class="cls-7" d="M621.86,480l-.07,0,.08-.09c.47-4.28,2.27-5,2.27-5a17.29,17.29,0,0,1-2.09,4.81c2.62-3.08,4.44-2.74,4.44-2.74a17.88,17.88,0,0,1-4.6,3l0,0Z"/><path class="cls-7" d="M718.87,456.2l-.07,0,.08-.1c.47-4.28,2.27-5,2.27-5a17.16,17.16,0,0,1-2.09,4.81c2.62-3.07,4.44-2.74,4.44-2.74a17.44,17.44,0,0,1-4.61,3l0,.05Z"/><path class="cls-7" d="M757.41,434.09l-.07,0,.08-.09c.48-4.28,2.27-5,2.27-5a17.29,17.29,0,0,1-2.09,4.81c2.62-3.07,4.44-2.74,4.44-2.74a17.88,17.88,0,0,1-4.6,3l0,0Z"/><path class="cls-7" d="M669.74,487.66l-.07,0,.08-.1c.47-4.27,2.27-5,2.27-5a17.43,17.43,0,0,1-2.09,4.81c2.62-3.08,4.44-2.74,4.44-2.74a18,18,0,0,1-4.61,3l0,0Z"/><path class="cls-7" d="M757.41,485.1l-.07,0,.08-.09c.48-4.28,2.27-5,2.27-5a17.29,17.29,0,0,1-2.09,4.81c2.62-3.07,4.44-2.74,4.44-2.74a17.88,17.88,0,0,1-4.6,3l0,0Z"/><path class="cls-7" d="M646.46,435.77l-.07,0,.08-.1c.48-4.28,2.27-5,2.27-5a17.16,17.16,0,0,1-2.09,4.81c2.62-3.07,4.44-2.73,4.44-2.73a17.76,17.76,0,0,1-4.6,3l0,.05Z"/><path class="cls-7" d="M568.39,445.26l-.07,0,.08-.09c.48-4.28,2.27-5,2.27-5a17.29,17.29,0,0,1-2.09,4.81c2.62-3.08,4.44-2.74,4.44-2.74a17.88,17.88,0,0,1-4.6,3l0,0Z"/><path class="cls-11" d="M210.51,95a3.66,3.66,0,1,1-3.66-3.66A3.66,3.66,0,0,1,210.51,95Z"/><path class="cls-11" d="M144.3,34.26a3.66,3.66,0,1,1-3.65-3.65A3.65,3.65,0,0,1,144.3,34.26Z"/><path class="cls-11" d="M274.39,33.88a3.66,3.66,0,1,1-3.66-3.66A3.66,3.66,0,0,1,274.39,33.88Z"/><path class="cls-11" d="M368.92,47.83a3.66,3.66,0,1,1-3.66-3.65A3.66,3.66,0,0,1,368.92,47.83Z"/><path class="cls-11" d="M658.83,106a3.66,3.66,0,1,1-3.65-3.65A3.65,3.65,0,0,1,658.83,106Z"/><path class="cls-11" d="M765.7,286.54a3.66,3.66,0,1,1-3.66-3.66A3.66,3.66,0,0,1,765.7,286.54Z"/><path class="cls-11" d="M747.5,40.52a3.66,3.66,0,1,1-3.65-3.65A3.65,3.65,0,0,1,747.5,40.52Z"/><path class="cls-11" d="M590.8,152.81a3.66,3.66,0,1,1-3.66-3.65A3.66,3.66,0,0,1,590.8,152.81Z"/><path class="cls-11" d="M753.27,144.13a3.66,3.66,0,1,1-3.65-3.65A3.66,3.66,0,0,1,753.27,144.13Z"/><path class="cls-11" d="M283.23,251.84a3.66,3.66,0,1,1-3.66-3.66A3.66,3.66,0,0,1,283.23,251.84Z"/><path class="cls-11" d="M556.44,44.18a3.66,3.66,0,1,1-3.66-3.66A3.65,3.65,0,0,1,556.44,44.18Z"/><path class="cls-11" d="M365.26,311.23a3.66,3.66,0,1,1-3.66-3.65A3.66,3.66,0,0,1,365.26,311.23Z"/><path class="cls-11" d="M475.68,318.55a3.66,3.66,0,1,1-3.65-3.66A3.64,3.64,0,0,1,475.68,318.55Z"/><path class="cls-11" d="M572,297.1a3.66,3.66,0,1,1-3.66-3.66A3.65,3.65,0,0,1,572,297.1Z"/><path class="cls-11" d="M680.51,227.49a3.66,3.66,0,1,1-3.66-3.66A3.66,3.66,0,0,1,680.51,227.49Z"/><path class="cls-11" d="M274.13,300.75a3.66,3.66,0,1,1-3.66-3.65A3.66,3.66,0,0,1,274.13,300.75Z"/><path class="cls-11" d="M265.08,165a3.66,3.66,0,1,1-3.65-3.66A3.65,3.65,0,0,1,265.08,165Z"/><path class="cls-11" d="M120.36,159.48a3.66,3.66,0,1,1-3.65-3.65A3.65,3.65,0,0,1,120.36,159.48Z"/><path class="cls-11" d="M78.3,78.57a3.66,3.66,0,1,1-3.65-3.66A3.64,3.64,0,0,1,78.3,78.57Z"/><path class="cls-11" d="M165,214.4a3.66,3.66,0,1,1-3.66-3.66A3.66,3.66,0,0,1,165,214.4Z"/><path class="cls-11" d="M89.66,266.71A3.66,3.66,0,1,1,86,263.06,3.66,3.66,0,0,1,89.66,266.71Z"/><path class="cls-11" d="M203.08,263.06a3.66,3.66,0,1,1-3.66-3.66A3.65,3.65,0,0,1,203.08,263.06Z"/><path class="cls-11" d="M587.14,239.94a3.66,3.66,0,1,1-3.65-3.66A3.65,3.65,0,0,1,587.14,239.94Z"/><rect class="cls-12" x="53.4" y="0.23" width="750" height="500"/></g></g></svg>