<svg width="544" height="546" viewBox="0 0 544 546" fill="none" xmlns="http://www.w3.org/2000/svg">
<path d="M271.792 545.174C421.672 545.174 543.174 423.672 543.174 273.792C543.174 123.912 421.672 2.4101 271.792 2.4101C121.912 2.4101 0.410156 123.912 0.410156 273.792C0.410156 423.672 121.912 545.174 271.792 545.174Z" fill="white"/>
<path d="M401.736 488.428C398.355 488.43 395.048 487.429 392.236 485.552C389.423 483.674 387.23 481.005 385.935 477.881C384.64 474.757 384.3 471.32 384.958 468.003C385.617 464.686 387.244 461.639 389.635 459.247C392.025 456.855 395.072 455.226 398.388 454.565C401.705 453.905 405.143 454.243 408.267 455.536C411.392 456.83 414.062 459.021 415.941 461.833C417.82 464.645 418.823 467.95 418.823 471.332C418.823 475.865 417.023 480.212 413.819 483.418C410.615 486.624 406.269 488.426 401.736 488.428Z" fill="#EBEBEB"/>
<path d="M385.947 472.929C385.939 469.488 386.97 466.125 388.905 463.28C390.84 460.436 393.59 458.242 396.793 456.986C399.996 455.731 403.504 455.472 406.857 456.244C410.21 457.016 413.252 458.783 415.583 461.314C414.22 459.42 412.483 457.826 410.479 456.629C408.475 455.433 406.248 454.66 403.934 454.358C401.62 454.056 399.269 454.231 397.025 454.873C394.782 455.515 392.694 456.61 390.89 458.091C389.086 459.571 387.605 461.406 386.538 463.481C385.47 465.556 384.839 467.828 384.684 470.156C384.529 472.484 384.853 474.82 385.635 477.018C386.418 479.217 387.643 481.232 389.234 482.938C387.103 480.035 385.952 476.53 385.947 472.929Z" fill="#DFDFDF"/>
<path d="M233.511 438.54C231.821 438.539 230.17 438.036 228.767 437.096C227.363 436.156 226.269 434.821 225.624 433.26C224.979 431.699 224.811 429.981 225.142 428.325C225.473 426.668 226.287 425.146 227.482 423.953C228.677 422.759 230.2 421.946 231.857 421.617C233.514 421.288 235.231 421.458 236.792 422.105C238.352 422.752 239.686 423.847 240.624 425.251C241.563 426.656 242.063 428.308 242.063 429.997C242.063 431.12 241.842 432.231 241.412 433.269C240.982 434.306 240.352 435.248 239.558 436.041C238.763 436.835 237.821 437.464 236.783 437.893C235.745 438.322 234.633 438.542 233.511 438.54Z" fill="#EBEBEB"/>
<path d="M225.601 430.791C225.601 429.074 226.119 427.396 227.087 425.978C228.054 424.559 229.427 423.465 231.025 422.838C232.624 422.211 234.375 422.08 236.049 422.463C237.723 422.846 239.242 423.724 240.41 424.983C239.729 424.032 238.86 423.231 237.857 422.629C236.854 422.028 235.738 421.639 234.578 421.486C233.419 421.334 232.24 421.421 231.116 421.742C229.991 422.063 228.944 422.612 228.041 423.355C227.137 424.097 226.395 425.017 225.861 426.058C225.328 427.099 225.013 428.238 224.938 429.405C224.862 430.572 225.027 431.743 225.422 432.843C225.818 433.944 226.435 434.952 227.235 435.805C226.171 434.35 225.599 432.593 225.601 430.791Z" fill="#DFDFDF"/>
<path d="M168.403 464.778C183.651 464.778 196.012 452.416 196.012 437.168C196.012 421.919 183.651 409.558 168.403 409.558C153.154 409.558 140.793 421.919 140.793 437.168C140.793 452.416 153.154 464.778 168.403 464.778Z" fill="#EBEBEB"/>
<path d="M142.94 439.745C142.931 434.193 144.598 428.767 147.723 424.178C150.848 419.589 155.285 416.049 160.454 414.022C165.623 411.996 171.283 411.576 176.694 412.819C182.106 414.061 187.016 416.908 190.783 420.987C188.581 417.926 185.774 415.349 182.537 413.415C179.3 411.481 175.7 410.231 171.961 409.743C168.222 409.254 164.422 409.537 160.797 410.575C157.171 411.612 153.797 413.382 150.882 415.774C147.967 418.167 145.574 421.131 143.849 424.485C142.125 427.839 141.106 431.51 140.857 435.273C140.607 439.036 141.131 442.81 142.396 446.362C143.662 449.914 145.643 453.169 148.216 455.926C144.787 451.227 142.94 445.561 142.94 439.745Z" fill="#DFDFDF"/>
<path opacity="0.2" d="M211.886 440.613C143.719 440.417 77.295 419.064 21.7832 379.502C62.8196 476.421 158.599 544.665 270.551 545.17C420.429 545.861 542.493 424.918 543.193 275.03C543.307 248.872 539.637 222.835 532.297 197.728C493.679 338.316 364.65 441.313 211.886 440.613Z" fill="#B8B8B8"/>
<path opacity="0.2" d="M233.594 489.848C169.001 489.651 105.894 470.45 52.1377 434.637C77.1929 468.876 109.938 496.753 147.737 516.022C185.535 535.292 227.33 545.417 269.757 545.581C417.385 546.253 537.927 428.867 542.184 282.173C493.165 404.413 373.295 490.492 233.594 489.848Z" fill="#B8B8B8"/>
<path d="M286.162 46.5702C282.78 46.5702 279.474 45.5673 276.663 43.6884C273.851 41.8094 271.66 39.1388 270.366 36.0143C269.072 32.8899 268.734 29.4519 269.395 26.1354C270.055 22.8188 271.684 19.7725 274.076 17.382C276.468 14.9914 279.515 13.3639 282.832 12.7053C286.149 12.0467 289.587 12.3866 292.711 13.682C295.834 14.9774 298.504 17.1701 300.381 19.9828C302.259 22.7954 303.26 26.1017 303.258 29.4834C303.258 31.7281 302.815 33.9508 301.956 36.0244C301.097 38.0981 299.838 39.9822 298.25 41.5689C296.662 43.1557 294.777 44.4141 292.703 45.2723C290.629 46.1304 288.406 46.5715 286.162 46.5702Z" fill="#EBEBEB"/>
<path d="M270.382 31.0707C270.376 27.6348 271.408 24.2773 273.342 21.4372C275.276 18.5972 278.022 16.407 281.221 15.1531C284.42 13.8991 287.923 13.6398 291.271 14.4091C294.62 15.1784 297.659 16.9404 299.99 19.4648C298.632 17.5554 296.897 15.9456 294.891 14.7357C292.884 13.5258 290.651 12.7416 288.329 12.4318C286.007 12.122 283.646 12.2934 281.393 12.9351C279.139 13.5768 277.042 14.6753 275.232 16.1621C273.422 17.649 271.937 19.4924 270.869 21.5778C269.802 23.6631 269.175 25.9458 269.027 28.2839C268.88 30.6219 269.215 32.9653 270.011 35.1683C270.808 37.3713 272.05 39.3868 273.659 41.0894C271.533 38.1814 270.385 34.6732 270.382 31.0707Z" fill="#DFDFDF"/>
<path d="M487.478 160.249C484.097 160.249 480.791 159.246 477.98 157.368C475.168 155.489 472.977 152.819 471.683 149.695C470.389 146.571 470.051 143.134 470.71 139.818C471.37 136.501 472.998 133.455 475.389 131.064C477.78 128.673 480.826 127.045 484.143 126.385C487.459 125.726 490.897 126.064 494.02 127.358C497.144 128.652 499.814 130.843 501.693 133.655C503.572 136.466 504.574 139.772 504.574 143.153C504.574 147.687 502.773 152.036 499.567 155.242C496.361 158.448 492.012 160.249 487.478 160.249Z" fill="#EBEBEB"/>
<path d="M471.652 144.74C471.649 141.304 472.683 137.948 474.618 135.109C476.553 132.27 479.299 130.08 482.498 128.827C485.697 127.573 489.2 127.314 492.549 128.082C495.897 128.851 498.936 130.611 501.269 133.134C499.905 131.24 498.168 129.646 496.165 128.45C494.161 127.254 491.934 126.481 489.62 126.179C487.306 125.877 484.954 126.052 482.711 126.694C480.467 127.336 478.379 128.431 476.576 129.911C474.772 131.392 473.29 133.226 472.223 135.301C471.156 137.376 470.525 139.648 470.37 141.977C470.215 144.305 470.538 146.641 471.321 148.839C472.103 151.037 473.328 153.052 474.919 154.759C472.794 151.851 471.65 148.342 471.652 144.74Z" fill="#DFDFDF"/>
<path d="M34.1919 274.068C32.5021 274.068 30.8503 273.567 29.4454 272.628C28.0404 271.689 26.9454 270.355 26.2988 268.794C25.6521 267.233 25.483 265.515 25.8126 263.858C26.1422 262.201 26.9559 260.678 28.1507 259.483C29.3456 258.289 30.8679 257.475 32.5251 257.145C34.1824 256.816 35.9002 256.985 37.4613 257.631C39.0224 258.278 40.3567 259.373 41.2954 260.778C42.2342 262.183 42.7353 263.835 42.7353 265.524C42.7353 267.79 41.8352 269.963 40.233 271.566C38.6308 273.168 36.4577 274.068 34.1919 274.068Z" fill="#EBEBEB"/>
<path d="M26.3017 266.318C26.3019 264.601 26.8195 262.924 27.7871 261.505C28.7546 260.086 30.1272 258.992 31.7259 258.365C33.3245 257.738 35.075 257.608 36.749 257.99C38.423 258.373 39.9429 259.251 41.1103 260.511C40.4241 259.576 39.5547 258.791 38.5551 258.204C37.5555 257.616 36.4467 257.239 35.2963 257.094C34.146 256.949 32.9782 257.04 31.8642 257.362C30.7503 257.684 29.7136 258.229 28.8173 258.964C27.9211 259.7 27.1841 260.61 26.6514 261.64C26.1187 262.67 25.8014 263.798 25.7189 264.954C25.6364 266.111 25.7904 267.272 26.1716 268.367C26.5527 269.462 27.153 270.468 27.9357 271.323C26.8691 269.873 26.2963 268.118 26.3017 266.318Z" fill="#DFDFDF"/>
<path d="M461.801 304.059C460.112 304.059 458.46 303.558 457.055 302.619C455.65 301.68 454.555 300.346 453.908 298.785C453.262 297.224 453.092 295.506 453.422 293.848C453.752 292.191 454.565 290.669 455.76 289.474C456.955 288.279 458.477 287.466 460.134 287.136C461.792 286.806 463.51 286.975 465.071 287.622C466.632 288.269 467.966 289.364 468.905 290.769C469.844 292.174 470.345 293.825 470.345 295.515C470.346 296.637 470.126 297.749 469.697 298.786C469.268 299.823 468.639 300.765 467.845 301.559C467.052 302.353 466.109 302.982 465.072 303.411C464.035 303.84 462.924 304.06 461.801 304.059Z" fill="#EBEBEB"/>
<path d="M453.912 296.309C453.911 294.592 454.428 292.915 455.395 291.497C456.362 290.079 457.734 288.985 459.333 288.359C460.931 287.733 462.681 287.603 464.354 287.987C466.027 288.371 467.545 289.25 468.711 290.511C468.025 289.576 467.155 288.791 466.156 288.204C465.156 287.616 464.047 287.239 462.897 287.094C461.747 286.949 460.579 287.04 459.465 287.362C458.351 287.684 457.314 288.229 456.418 288.964C455.522 289.7 454.785 290.61 454.252 291.64C453.719 292.67 453.402 293.798 453.319 294.954C453.237 296.111 453.391 297.272 453.772 298.367C454.153 299.462 454.754 300.468 455.536 301.323C454.479 299.865 453.911 298.11 453.912 296.309Z" fill="#DFDFDF"/>
<path d="M79.8131 439.913C78.1207 439.915 76.4658 439.414 75.0579 438.475C73.65 437.536 72.5523 436.201 71.9038 434.637C71.2553 433.074 71.0852 431.354 71.4149 429.694C71.7446 428.034 72.5593 426.509 73.756 425.312C74.9527 424.116 76.4775 423.301 78.1375 422.971C79.7974 422.642 81.5178 422.812 83.081 423.46C84.6442 424.109 85.9799 425.206 86.919 426.614C87.8581 428.022 88.3583 429.677 88.3565 431.37C88.354 433.635 87.4531 435.806 85.8514 437.408C84.2498 439.01 82.0782 439.91 79.8131 439.913Z" fill="#EBEBEB"/>
<path d="M71.9131 432.163C71.9132 430.446 72.4308 428.769 73.3984 427.35C74.366 425.931 75.7386 424.837 77.3372 424.21C78.9359 423.583 80.6863 423.453 82.3603 423.835C84.0344 424.218 85.5542 425.096 86.7217 426.356C86.0355 425.421 85.166 424.636 84.1664 424.049C83.1668 423.461 82.058 423.084 80.9076 422.939C79.7573 422.794 78.5895 422.885 77.4756 423.207C76.3616 423.529 75.3249 424.074 74.4287 424.809C73.5324 425.545 72.7954 426.455 72.2627 427.485C71.73 428.515 71.4127 429.643 71.3302 430.799C71.2477 431.956 71.4017 433.117 71.7829 434.212C72.164 435.307 72.7643 436.313 73.5471 437.168C72.4857 435.715 71.9135 433.962 71.9131 432.163Z" fill="#DFDFDF"/>
</svg>
